<?xml version="1.0" encoding="utf-8"?>
<!-- Generator: Adobe Illustrator 23.0.2, SVG Export Plug-In . SVG Version: 6.00 Build 0)  -->
<svg version="1.1" xmlns="http://www.w3.org/2000/svg" xmlns:xlink="http://www.w3.org/1999/xlink" x="0px" y="0px"
	 viewBox="0 0 500 500" style="enable-background:new 0 0 500 500;" xml:space="preserve">
<style type="text/css">
	.st0{fill:#EBEBEB;}
	.st1{fill:#E0E0E0;}
	.st2{fill:#FFFFFF;}
	.st3{fill:#F5F5F5;}
	.st4{opacity:0.6;}
	.st5{opacity:0.3;}
	.st6{display:none;}
	.st7{display:inline;}
	.st8{fill:#263238;}
	.st9{fill:#FF725E;}
	.st10{opacity:0.2;}
	.st11{fill:#FAFAFA;}
	.st12{fill:#455A64;}
	.st13{fill:#FFBE9D;}
	.st14{fill:#EB996E;}
	.st15{fill:none;}
</style>
<g id="Background_Complete">
	<g>
		<g>
			<g>
				<g>
					<g>
						<g>
							<g>
								<g>
									<g>
										<path class="st0" d="M452.4,345.3l-41.1-15.6c-2.8-1.1-4.3-4.3-3.2-7.1l21.6-56.8c1.1-2.8,4.3-4.3,7.1-3.2l26,9.9
											l12.2,28.5l-15.7,41.2C458.4,345,455.3,346.4,452.4,345.3z"/>
									</g>
								</g>
							</g>
						</g>
					</g>
				</g>
			</g>
			<g>
				<g>
					<g>
						<g>
							<g>
								<g>
									<g>
										<path class="st1" d="M463,272.5l-6.1,16c-1,2.6,0.3,5.6,3,6.6l15.4,5.9L463,272.5z"/>
									</g>
								</g>
							</g>
						</g>
					</g>
				</g>
			</g>
		</g>
		<g>
			<g>
				<g>
					<g>
						<g>
							<g>
								<path class="st2" d="M453.7,286.5c-0.1,0.2-4.4-1.2-9.6-3.2c-5.2-2-9.4-3.8-9.4-4c0.1-0.2,4.4,1.2,9.6,3.2
									C449.6,284.5,453.8,286.3,453.7,286.5z"/>
							</g>
						</g>
					</g>
				</g>
			</g>
		</g>
		<g>
			<g>
				<g>
					<g>
						<g>
							<g>
								<path class="st2" d="M462.5,300.2c-0.1,0.2-7.1-2.3-15.8-5.6c-8.6-3.3-15.6-6.1-15.5-6.3c0.1-0.2,7.1,2.3,15.8,5.6
									C455.6,297.2,462.6,300,462.5,300.2z"/>
							</g>
						</g>
					</g>
				</g>
			</g>
		</g>
		<g>
			<g>
				<g>
					<g>
						<g>
							<g>
								<path class="st2" d="M462.4,308.8c-0.1,0.2-7.8-2.5-17.2-6.1c-9.4-3.6-17-6.7-16.9-6.9c0.1-0.2,7.8,2.5,17.2,6.1
									C455,305.6,462.5,308.6,462.4,308.8z"/>
							</g>
						</g>
					</g>
				</g>
			</g>
		</g>
		<g>
			<g>
				<g>
					<g>
						<g>
							<g>
								<path class="st2" d="M459.7,316c-0.1,0.2-7.8-2.5-17.2-6.1c-9.4-3.6-17-6.7-16.9-6.9c0.1-0.2,7.8,2.5,17.2,6.1
									C452.2,312.7,459.8,315.8,459.7,316z"/>
							</g>
						</g>
					</g>
				</g>
			</g>
		</g>
		<g>
			<g>
				<g>
					<g>
						<g>
							<g>
								<path class="st2" d="M457,323.1c-0.1,0.2-7.8-2.5-17.2-6.1c-9.4-3.6-17-6.7-16.9-6.9c0.1-0.2,7.8,2.5,17.2,6.1
									C449.5,319.8,457.1,322.9,457,323.1z"/>
							</g>
						</g>
					</g>
				</g>
			</g>
		</g>
		<g>
			<g>
				<g>
					<g>
						<g>
							<g>
								<path class="st2" d="M454.3,330.2c-0.1,0.2-7.8-2.5-17.2-6.1c-9.4-3.6-17-6.7-16.9-6.9c0.1-0.2,7.8,2.5,17.2,6.1
									C446.8,326.9,454.4,330,454.3,330.2z"/>
							</g>
						</g>
					</g>
				</g>
			</g>
		</g>
	</g>
	<g>
		<g>
			<g>
				<g>
					<g>
						<g>
							<g>
								<path class="st3" d="M258,162.9c-0.1-1.3-0.3-2.5-0.4-3.7c-0.2-1.3-0.4-2.6-0.6-3.9c0.2,1.3,0.4,2.6,0.6,3.9
									C257.7,160.4,257.8,161.6,258,162.9z"/>
							</g>
						</g>
					</g>
				</g>
				<g>
					<g>
						<g>
							<g>
								<path class="st3" d="M247.9,178.4c-1.1-2.4-1.3-5.1-2-7.7c-0.4-1.4-1-2.8-2.3-3.5c-0.9-0.4-1.9-0.3-2.8-0.6
									c-3.3-1-4.1-5.5-7.2-6.9c-1-0.4-2.1-0.5-3.1-0.6c-4.1-0.5-8.4-1.9-11-5.2c-0.9-1-1.5-2.3-2.5-3.1c-1.1-0.9-2.7-1.2-3.7-0.3
									c0.9,1.7,1.7,3.5,2.6,5.2c0.8,1.6,1.6,3.2,2.9,4.3c1.3,1.2,3.3,1.8,4.9,1c0.5-0.2,1-0.6,1.6-0.6c0.4,0.1,0.8,0.3,1.1,0.7
									c2.2,2.5,1.5,6.6-0.7,9.2c-2.2,2.5-5.4,3.9-8.5,5.1c-1.1,0.4-2.3,0.9-3.5,0.7c-2.2-0.4-3.3-2.8-3.9-4.9
									c-1.4-4.7-2.1-9.7-5-13.7c-0.9-1.2-2.1-2.4-2.6-3.8c-0.6-1.6-0.5-3.4-1.4-4.8c-1-1.4-3.1-2.3-3.2-4c-0.1-1.2,0.9-2.3,2-2.8
									c1.1-0.5,2.4-0.7,3.5-1.2c0.5-0.2,1-0.5,1-1c0-0.7-1-1-1.3-1.7c-0.3-0.8,0.5-1.5,0.8-2.2c0.7-1.7-1.1-3.4-2.8-4.1
									c-1.7-0.7-3.8-1.2-4.6-2.9c-0.4-0.8-0.4-1.7-0.6-2.5c-0.4-2.1-2-4.1-4.1-4.5c-2.1-0.3-4.5,1.6-4.2,3.7
									c0.2,1.2,1.1,2.1,1.6,3.2c0.5,1.1,0.3,2.7-0.8,3c-1.8,0.6-3.6-2.8-5.1-1.6c0.6,2.1,1.2,4.3,1.9,6.5c-2.4,1.2-5.3-1-6.3-3.5
									c-1-2.5-1.1-5.4-2.3-7.8c-1.2-2.4-4.5-4.2-6.6-2.5c-0.1,3.1,4,4.4,5.8,6.9c1.3,1.8,1.1,4.8-0.8,5.9c-1.9,1.2-5-0.9-4.2-3
									c0.3-0.7,0.9-1.3,0.9-2.1c0.1-1-0.7-1.8-1.5-2.4c-1.2-1-2.3-2-3.5-2.9c-0.8-0.6-1.6-1.3-2.5-1.6c-2.4-0.7-4.8,1.3-6.1,3.4
									c-1.3,2.2-2,4.7-3.7,6.5c-2.5,2.6-7.3,2.8-9.7,0c-2.4-2.7-1.2-7.9,2.3-8.9c1.3-0.4,3-0.3,3.7-1.5c1.2-2.1-2.3-4.7-1.1-6.8
									c0.9-1.6,3.4-0.9,5.1-1.4c1.8-0.5,2.8-2.3,3.8-3.9c1-1.5,2.7-3.1,4.5-2.6c-0.1-1.1-0.3-2.2,0.2-3.2c0.5-1,1.8-1.6,2.7-1
									c-0.9,1.5,0.2,3.5,1.7,4.2c1.6,0.7,3.4,0.6,5.1,0.4c1.7-0.2,3.9-0.8,4-2.5c0.1-0.6-0.2-1.2,0.1-1.7c0.7-2,4.5,0.8,6-0.9
									c0.8-0.9-0.1-2.4-1.3-2.6c-1.2-0.3-2.4,0.1-3.5,0.2c-1.2,0.1-2.6-0.6-2.7-1.8c-0.1-1.2,1.3-2,1.4-3.2c0.2-2-3.1-2.5-4.3-0.9
									c-1.2,1.6-0.7,3.8-0.4,5.7c0.4,1.9,0.5,4.2-0.9,5.6c-0.6,0.9-2.2,0.4-2.7-0.5c-0.5-1-0.4-2.2-0.5-3.3
									c-0.1-1.1-0.6-2.4-1.7-2.7c-0.7-0.2-1.6,0.2-2.3,0.3c-3,0.4-5.1-3.6-4.2-6.4c0.9-2.9,3.7-4.8,6.4-6.3c2-1.1,4.4-2.1,6.3-1
									c0.9,0.5,1.5,1.4,2.4,1.9c1.5,0.9,3.4,0.6,5.2,0.6c2.8,0.1,5.5,1.1,7.6,2.9c0.8,0.7,1.5,1.9,0.9,2.8
									c-0.7,0.9-2.6,1.1-2.2,2.2c2.1,0.7,4.5-0.9,4.7-3.1c1,0.5,1.7,1.5,1.8,2.6c2.2-2.2,6.5-1.9,8.3,0.7c0.5,0.7,0.8,1.5,1.5,2
									c0.7,0.5,1.9,0.2,2-0.6c0-0.3-0.1-0.5-0.1-0.8c-0.4-1.2-0.9-2.4-1.3-3.5c1.6-0.9,3.5,0.5,4.6,2c4.1,5.5,7,2.2,12.7,3.1
									c3.9,0.6,5.6,3.1,7.8,6.1c6.7,9.3,15.6,16.9,21.7,26.6c0.6,1,1.2,2,1.8,3.1c-0.1-0.3-0.2-0.5-0.3-0.8
									c-2.4-6.3-5.4-12.4-8.9-18.1c-0.7-1.2-1.5-2.4-2.3-3.6c-0.5-0.7-1-1.5-1.5-2.2c-0.6-0.9-1.3-1.8-2-2.8
									c-0.5-0.7-1.1-1.4-1.6-2.1c-0.4-0.5-0.8-1-1.2-1.5c-0.4-0.6-0.9-1.1-1.4-1.6l-1.5-1.7c-0.1-0.2-0.3-0.3-0.5-0.5
									c-0.5-0.6-1-1.2-1.6-1.7c0-0.1-0.1-0.1-0.2-0.2c-0.1-0.2-0.3-0.3-0.5-0.5c-0.4-0.5-0.9-1-1.4-1.4c-0.7-0.8-1.5-1.5-2.3-2.3
									c-0.6-0.6-1.3-1.3-2-1.9c-0.6-0.5-1.2-1.1-1.8-1.6c-0.6-0.5-1.2-1-1.8-1.5c-0.7-0.6-1.5-1.2-2.2-1.8h0
									c-2.1-1.7-4.3-3.3-6.5-4.8c-0.6-0.4-1.1-0.7-1.7-1.1c-0.6-0.4-1.1-0.7-1.7-1.1c-0.6-0.3-1.1-0.7-1.7-1
									c-0.6-0.4-1.2-0.7-1.7-1c-0.5-0.3-0.9-0.5-1.4-0.8c-0.2-0.2-0.5-0.3-0.7-0.4c-1-0.6-2-1.1-3-1.6c-0.5-0.3-1-0.5-1.5-0.8
									c-0.6-0.3-1.3-0.6-2-0.9c-0.1-0.1-0.2-0.1-0.3-0.1c-0.6-0.3-1.2-0.6-1.8-0.8c-0.9-0.4-1.7-0.7-2.6-1.1c-1-0.4-2-0.8-2.9-1.2
									c-1.1-0.4-2.2-0.8-3.3-1.2c-1.1-0.4-2.2-0.7-3.4-1.1c-1.1-0.3-2.3-0.7-3.4-1c-2.3-0.6-4.6-1.2-6.9-1.6c0,0-0.1,0-0.1,0
									c-0.9-0.2-1.8-0.3-2.7-0.5c-0.1,0-0.1,0-0.2,0c-0.4-0.1-0.8-0.1-1.2-0.2c-1.7-0.3-3.3-0.5-5-0.7c-0.2,0-0.4-0.1-0.6-0.1
									c-0.5-0.1-1-0.1-1.5-0.2c-1.1-0.1-2.2-0.2-3.4-0.3c-1.2-0.1-2.4-0.1-3.5-0.2c-1.2-0.1-2.5-0.1-3.7-0.1
									c-3.3,0-6.5,0.1-9.7,0.4c-0.8,0.1-1.5,0.1-2.3,0.2c-0.8,0.1-1.6,0.2-2.4,0.3c-0.8,0.1-1.6,0.2-2.3,0.3
									c-0.8,0.1-1.6,0.2-2.3,0.4c-0.7,0.1-1.3,0.2-2,0.4c-1.6,0.3-3.3,0.7-4.9,1c-0.7,0.2-1.5,0.4-2.2,0.6
									c-0.7,0.2-1.5,0.4-2.2,0.6c-1.2,0.3-2.4,0.7-3.6,1.1h0c-1,0.3-2,0.7-2.9,1c0,0-0.1,0-0.1,0c-1,0.3-2,0.7-2.9,1.1
									c-0.1,0-0.1,0-0.2,0.1c-0.9,0.3-1.8,0.7-2.6,1.1c-1.1,0.5-2.2,0.9-3.2,1.4c-0.9,0.4-1.8,0.8-2.7,1.3
									c-0.9,0.5-1.9,0.9-2.8,1.4c0,0-0.1,0-0.1,0.1c-0.9,0.5-1.8,1-2.6,1.5c-0.9,0.5-1.8,1-2.7,1.6h0c-0.8,0.5-1.7,1-2.5,1.5
									c-0.3,0.2-0.6,0.4-0.9,0.6c-0.9,0.6-1.7,1.1-2.6,1.7c-1,0.7-2.1,1.5-3.1,2.2c-0.9,0.7-1.8,1.3-2.6,2
									c-4.9,3.9-9.5,8.3-13.7,13c-1.5,1.6-2.9,3.3-4.2,5c-1.2,1.5-2.3,2.9-3.3,4.5c-1,1.3-1.9,2.7-2.8,4.1
									c0.9-1.4,1.8-2.7,2.8-4.1c0.3,0,0.6-0.1,0.8-0.1c1.6-0.1,3.2-0.1,4.6-0.7c1.3-0.6,2.2-1.8,3.4-2.6c3-2.2,8-2.6,8.8-6.2
									c0.3-1.2-0.1-2.5,0.4-3.7c0.9-2.2,3.8-2.5,6.1-2.5c1,0,2.2,0.1,2.6,1c0.3,0.6,0.1,1.4-0.1,2c-1.4,4.1-4.3,7.6-8,9.8
									c-3,1.8-7,3.3-7.8,6.7c0.4,1.2,2.5,1.1,2.7,2.3c0.1,1-1.1,1.5-1.6,2.4c-0.7,1.3,0.9,2.8,2.3,2.8c1.4-0.1,2.6-1.1,3.7-2.1
									c3.2-2.9,6.5-6.1,7.7-10.3c0.5-1.7,0.7-3.7,2.1-4.9c1.7-1.4,4.6-0.4,5.2,1.7c1.4-0.8,3.5-1.3,4.2,0.1
									c0.2,0.5,0.2,1.1,0.3,1.6c0.5,2.2,3.5,3.2,3.8,5.5c0.4,2.6-3,3.9-5.6,4.3c-2.4,0.4-4.7,0.7-7.1,1.1c-1,0.2-2.1,0.3-2.9,0.9
									c-0.8,0.6-1.4,1.8-0.9,2.7c0.3,0.5,0.8,0.8,1.2,1.3c2,2,0.3,6-2.4,6.1c-0.9,0-1.9-0.3-2.8-0.3c-2.8-0.1-5,2.3-6.3,4.8
									c-1.3,2.5-2.3,5.3-4.5,6.9c-3.6,2.7-9.8,2.1-11.5,6.2c-0.7,1.7-0.3,3.6-0.1,5.4c0.3,1.8,0.4,3.8-0.6,5.2
									c-1,1.5-3.7,1.8-4.5,0.1c-0.3-0.7-0.2-1.6-0.1-2.3c0.4-2.6,0.8-5.2,1.2-7.7c0.3-1.9,0.6-4.1-0.6-5.6c-1.6-2.2-5.1-2-7.2-0.2
									c-2,1.8-2.9,4.5-3.5,7.1c-0.4,2-0.9,4.7-2,6.9c0,0,0,0,0,0c-0.4,2.2-0.7,4.4-0.9,6.6c-0.2,2.3-0.4,4.5-0.5,6.8
									c0.3-0.2,0.6-0.5,0.9-0.8c1.1-1.1,3.3-5.9,5.3-3.6c0.5,0.6,0.5,1.6,0,2.2c-0.6,0.8-1.8,1-2.3,1.8c-0.6,1,0.2,2.3,1.2,2.9
									c0.9,0.7,2.1,1.1,2.8,2.1c1.3,1.8,0.1,4.6,1.3,6.5c1.1,1.6,3.3,1.7,5.3,1.9c0.2,0,0.4,0.1,0.7,0.1c0.5-3.8,2.3-7,7.6-8.1
									c7.2-1.6,16.7,4.3,20.8,9.8c4.5,6.1,6.7,14.7,13.6,17.7c5,2.2,12,1.4,14.5,6.3c2.2,4.4-1.6,9.3-2.2,14.1
									c-0.4,3.2,0.7,6.4,0.9,9.6c0.2,3.2-0.7,6.9-3.6,8.3c-1.6,0.7-3.7,0.6-5,1.9c-2.3,2.2-0.4,6.7-2.7,8.9c-0.8,0.8-2,1-2.9,1.6
									c-5.2,2.6-5.1,10.3-2.6,15.6c0.1,0.2,0.2,0.4,0.3,0.6c7.7,4.6,16,8.3,24.8,10.9c10,3.1,20.7,4.7,31.7,4.7
									c18.7,0,36.3-4.7,51.7-12.9h0c3.3-1.8,6.6-3.7,9.7-5.9c4.9-3.3,9.4-6.9,13.7-10.9c2.9-2.8,5.8-5.7,8.4-8.7
									c1.8-2.1,3.6-4.3,5.3-6.6c0.9-1.2,1.7-2.3,2.5-3.5c2.4-3.5,4.6-7.2,6.6-11c2.9-5.5,5.2-11.2,7.1-17.2
									c1.9-6,3.3-12.3,4.2-18.7c0.3-2.5,0.6-5,0.8-7.5c-1.2,1.2-2.8,2-4.4,2C251.2,183,249,180.8,247.9,178.4z"/>
							</g>
						</g>
					</g>
				</g>
				<g>
					<g>
						<g>
							<g>
								<path class="st3" d="M52.6,202.8c-0.3-3.2,0.7-6.3,0.7-9.5c0-2.2-0.1-4.5-0.2-6.7c-1.9-0.1-3.8-0.3-5.6-0.8
									c-0.4-0.1-0.8-0.2-1-0.5c-0.2-0.3-0.2-0.8-0.2-1.2c-0.1-2.5-2.5-4.1-4.7-5.4c-1.1-0.6-2.2-1.3-3.4-1.7c0,0.3,0,0.5,0,0.8
									c0.4,12.3,2.9,24,7,35c1.9,5,4.1,9.8,6.7,14.4c1.1,2,2.3,4,3.5,5.9c1.5,2.4,3.1,4.7,4.9,7c1.6,2.2,3.3,4.3,5.1,6.3
									c2.5,2.8,5.1,5.5,7.8,8c2.4,2.3,5,4.4,7.6,6.4c-6-16.1-11.7-32.6-22-46.4C56.2,210.9,53.1,207.2,52.6,202.8z"/>
							</g>
						</g>
					</g>
				</g>
				<g>
					<g>
						<g>
							<g>
								<path class="st3" d="M38.2,171.8c0,0.7,0,1.3,0,2c0,0.5,0,1.1,0,1.6c0-0.5,0-1.1,0-1.6C38.2,173.1,38.2,172.5,38.2,171.8z"
									/>
							</g>
						</g>
					</g>
				</g>
				<g class="st4">
					<g>
						<g>
							<g>
								<path class="st3" d="M87,265.3c0.9,0.6,1.9,1.2,2.8,1.8c0.7,0.4,1.3,0.8,2,1.2c-0.7-0.4-1.3-0.8-2-1.2
									C88.9,266.5,88,265.9,87,265.3z"/>
							</g>
						</g>
					</g>
				</g>
				<g>
					<g>
						<g>
							<g>
								<path class="st0" d="M180.3,258.4c-0.7,0-1.4-0.1-2.1-0.2c-2.3-0.5-4-1.8-4.9-3.7c-0.7-1.5-0.8-3.2-0.8-4.8
									c0-1.1-0.1-2.2-0.3-3.3c-0.4-1.9-1.5-3.5-2.6-5.3c-0.8-1.3-1.7-2.6-2.2-4.1c-1-2.6-1.1-5.5-1.2-8.4l0-0.7
									c-0.6-19.4-6-35.1-15.6-45.5c-1.3-1.4-2.8-2.8-4.7-3.3c-2.2-0.6-4.7,0.3-6.1,2.1c-0.3,0.5-0.6,1-0.9,1.5
									c-0.4,0.8-0.9,1.6-1.6,2.3c-1,0.9-2.4,1.3-3.9,1c-2-0.3-3.9-1.6-4.8-3.3c-1.7-3-1.4-6.7-1.2-9.7l1-12
									c0.2-1.9,0.4-4.4,1.9-6.1c1.2-1.3,2.8-2,4.5-2.6c1.2-0.4,2.4-0.9,3.4-1.6c1.9-1.4,2.8-3.7,3.7-6.1c0.5-1.3,1-2.7,1.8-4
									c1.3-2.2,4.4-3.8,6.9-3.4c1.2,0.2,2.1,0.8,2.5,1.7c1.2-2.2,2.7-3.6,4.5-4.1c4-1.1,8.8,2,13.5,5.1c4.3,2.8,8.3,5.4,11.5,4.8
									c0.8-0.1,1.6-0.4,2.4-0.6c1.7-0.5,3.4-1,5.2-0.7c4.6,0.6,7,5.7,8.5,10l7.5,21c0.9,2.6,2.1,5.5,4.6,6.5c1,0.4,2,0.4,3.1,0.5
									c1.1,0,2.2,0.1,3.3,0.5c1.9,0.7,3.1,2.2,3.5,4.2c0.6,3.5-1.1,8-4.1,10.6l0,0c-1.4,1.2-2.9,2.2-4.4,3.3
									c-3.4,2.3-6.6,4.5-8,8.1c-0.7,1.9-0.8,4.1-0.9,6.2c-0.1,2.2-0.2,4.5-1.1,6.6c-0.8,1.8-2,3.3-3.3,4.8
									c-0.8,0.9-1.5,1.8-2.2,2.8c-2.4,3.6-3.1,8.1-3.7,12.5c-0.1,0.6-0.2,1.1-0.3,1.7c-0.8,4.9-2.1,10.3-6,13.6
									C185.1,257.6,182.7,258.4,180.3,258.4z"/>
							</g>
						</g>
					</g>
				</g>
				<g class="st4">
					<g>
						<g>
							<g>
								<path class="st3" d="M38.3,169.2L38.3,169.2L38.3,169.2L38.3,169.2L38.3,169.2c0,0.2,0,0.4,0,0.6c0,0.7,0,1.3,0,2
									c0-0.7,0-1.3,0-2C38.3,169.6,38.3,169.4,38.3,169.2z"/>
							</g>
						</g>
					</g>
				</g>
				<g class="st4">
					<g>
						<g>
							<g>
								<path class="st3" d="M38.2,175.4c0,0.5,0,1.1,0,1.6l0,0l0,0C38.2,176.5,38.2,176,38.2,175.4z"/>
							</g>
						</g>
					</g>
				</g>
				<g>
					<g>
						<g>
							<g>
								<path class="st0" d="M53.4,182.3c-0.2,0-0.4-0.1-0.7-0.1c-1.9-0.2-4.2-0.3-5.3-1.9c-1.2-1.9,0-4.6-1.3-6.5
									c-0.7-1-1.8-1.4-2.8-2.1c-0.9-0.7-1.7-1.9-1.2-2.9c0.5-0.9,1.7-1,2.3-1.8c0.5-0.6,0.5-1.6,0-2.2c-2-2.4-4.2,2.4-5.3,3.6
									c-0.3,0.3-0.6,0.6-0.9,0.8v0c0,0.2,0,0.4,0,0.6c0,0.7,0,1.3,0,2c0,0.7,0,1.3,0,2c0,0.5,0,1.1,0,1.6c0,0.5,0,1.1,0,1.6
									c1.2,0.4,2.3,1,3.4,1.7c2.1,1.2,4.5,2.9,4.7,5.4c0,0.4,0,0.8,0.2,1.2c0.2,0.3,0.6,0.4,1,0.5c1.8,0.4,3.7,0.7,5.6,0.8"/>
							</g>
						</g>
					</g>
				</g>
				<g>
					<g>
						<g>
							<g>
								<path class="st0" d="M53.2,186.5c0,2.2,0.2,4.5,0.2,6.7c-0.1,3.2-1.1,6.3-0.7,9.5c0.5,4.5,3.6,8.1,6.3,11.7
									c10.3,13.7,16,30.2,22,46.4h0c1.1,0.9,2.2,1.7,3.4,2.5c0.9,0.7,1.8,1.3,2.7,1.9c0.9,0.6,1.9,1.2,2.8,1.8
									c0.7,0.4,1.3,0.8,2,1.2c-0.1-0.2-0.2-0.4-0.3-0.6c-2.4-5.3-2.6-13,2.6-15.6c1-0.5,2.1-0.8,2.9-1.6c2.3-2.2,0.4-6.7,2.7-8.9
									c1.3-1.2,3.3-1.1,5-1.9c2.9-1.3,3.9-5.1,3.6-8.3c-0.2-3.2-1.3-6.4-0.9-9.6c0.6-4.8,4.3-9.7,2.2-14.1
									c-2.4-4.9-9.5-4.1-14.5-6.3c-6.9-3.1-9.1-11.7-13.6-17.7c-4.1-5.4-13.5-11.4-20.8-9.8c-5.2,1.2-7,4.3-7.6,8.1"/>
							</g>
						</g>
					</g>
				</g>
				<g>
					<g>
						<g>
							<g>
								<path class="st0" d="M45.1,141.7c2.1-1.8,5.6-2,7.2,0.2c1.1,1.6,0.9,3.7,0.6,5.6c-0.4,2.6-0.8,5.2-1.2,7.7
									c-0.1,0.8-0.2,1.6,0.1,2.3c0.8,1.6,3.5,1.3,4.5-0.1c1-1.5,0.9-3.5,0.6-5.2c-0.3-1.8-0.6-3.7,0.1-5.4
									c1.7-4.1,7.9-3.5,11.5-6.2c2.2-1.7,3.2-4.5,4.5-6.9c1.3-2.5,3.5-4.9,6.3-4.8c0.9,0,1.9,0.4,2.8,0.3c2.8-0.1,4.4-4.1,2.4-6.1
									c-0.4-0.4-0.9-0.7-1.2-1.3c-0.5-0.9,0-2.1,0.9-2.7c0.8-0.6,1.9-0.8,2.9-0.9c2.4-0.4,4.7-0.7,7.1-1.1
									c2.6-0.4,5.9-1.7,5.6-4.3c-0.3-2.2-3.4-3.3-3.8-5.5c-0.1-0.5-0.1-1.1-0.3-1.6c-0.7-1.4-2.9-0.9-4.2-0.1
									c-0.6-2.1-3.5-3-5.2-1.7c-1.4,1.2-1.6,3.2-2.1,4.9c-1.2,4.2-4.5,7.4-7.7,10.3c-1.1,1-2.3,2-3.7,2.1c-1.4,0.1-3-1.5-2.3-2.8
									c0.5-0.9,1.7-1.4,1.6-2.4c-0.2-1.2-2.3-1.1-2.7-2.3c0.8-3.5,4.8-4.9,7.8-6.7c3.7-2.2,6.6-5.8,8-9.8c0.2-0.6,0.4-1.4,0.1-2
									c-0.5-0.9-1.6-1-2.6-1c-2.3,0-5.2,0.3-6.1,2.5c-0.5,1.2-0.1,2.5-0.4,3.7c-0.8,3.6-5.8,4-8.8,6.2c-1.2,0.8-2.1,2-3.4,2.6
									c-1.4,0.7-3.1,0.6-4.6,0.7c-0.3,0-0.6,0.1-0.8,0.1c-1,1.3-1.9,2.7-2.8,4.1c-0.9,1.4-1.7,2.8-2.6,4.2
									c-3.9,6.7-7.1,13.8-9.6,21.3c-0.9,2.6-1.6,5.3-2.3,7.9c-0.7,2.7-1.2,5.4-1.7,8.2c1.1-2.2,1.6-5,2-6.9
									C42.2,146.2,43.1,143.5,45.1,141.7z"/>
							</g>
						</g>
					</g>
				</g>
				<g>
					<g>
						<g>
							<g>
								<path class="st0" d="M137.5,90.6c1-1.4,0.7-3.3,1.4-4.9c1.1-2.6,4.6-3.6,5.8-6.1c0.5-1,0.6-2.2,1.4-2.9
									c0.7-0.6,1.7-0.7,2.4-1.3c1.6-1.2,1-4.1-0.8-5.2c-4.3-2.8-12.3,0.4-16,3.1c-4.8,3.5-9.5,7.7-15.9,7.2
									c-1.8-0.1-3.6-0.6-5.2,0c-1.6,0.6-2.7,3.1-1.2,4.1c0.8,0.6,1.9,0.4,2.8,0.8c1.6,0.8,1.8,3.1,1,4.8c-0.8,1.6-2.3,2.8-3.2,4.4
									c-0.9,1.5-1.3,3.3-1.2,5c0.1,1.2,0.5,2.5,1.5,3.2c2,1.6,5,0.2,6.7-1.7c1.7-1.9,2.8-4.4,5-5.7c1.1-0.7,2.3-1,3.6-1.2
									c2.8-0.7,5.6-1.3,8.3-2C135.3,92.1,136.7,91.7,137.5,90.6z"/>
							</g>
						</g>
					</g>
				</g>
				<g class="st4">
					<g>
						<g>
							<g>
								<path class="st3" d="M258.5,172.3c0-1.6-0.1-3.2-0.1-4.7C258.4,169.1,258.4,170.7,258.5,172.3c0,0.5,0,1,0,1.5
									c0,2.4-0.1,4.8-0.2,7.3c0.1-2.4,0.2-4.8,0.2-7.3C258.5,173.3,258.5,172.8,258.5,172.3z"/>
							</g>
						</g>
					</g>
				</g>
				<g class="st4">
					<g>
						<g>
							<g>
								<path class="st3" d="M251.6,135.3c0.5,1.4,1,2.8,1.5,4.2C252.6,138.1,252.1,136.7,251.6,135.3
									C251.6,135.3,251.6,135.3,251.6,135.3C251.6,135.3,251.6,135.3,251.6,135.3C251.6,135.3,251.6,135.3,251.6,135.3
									C251.6,135.3,251.6,135.3,251.6,135.3z"/>
							</g>
						</g>
					</g>
				</g>
				<g>
					<g>
						<g>
							<g>
								<path class="st0" d="M258.5,172.3c0-1.6-0.1-3.2-0.1-4.7c-0.1-1.6-0.2-3.1-0.4-4.7c-0.1-1.3-0.3-2.5-0.4-3.7
									c-0.2-1.3-0.4-2.6-0.6-3.9c-0.7-3.9-1.5-7.7-2.6-11.4c-0.4-1.4-0.8-2.9-1.3-4.3c-0.5-1.4-1-2.8-1.5-4.2c0,0,0,0,0,0
									c0,0,0,0,0,0c-0.6-1-1.2-2.1-1.8-3.1c-6.1-9.7-15-17.3-21.7-26.6c-2.2-3-3.9-5.5-7.8-6.1c-5.8-0.9-8.7,2.4-12.7-3.1
									c-1.1-1.5-3-2.8-4.6-2c0.4,1.2,0.9,2.3,1.3,3.5c0.1,0.2,0.2,0.5,0.1,0.8c-0.1,0.8-1.3,1-2,0.6c-0.7-0.5-1-1.3-1.5-2
									c-1.8-2.6-6.1-2.9-8.3-0.7c-0.1-1.1-0.8-2.1-1.8-2.6c-0.2,2.1-2.7,3.7-4.7,3.1c-0.3-1.1,1.6-1.3,2.2-2.2
									c0.6-0.9-0.1-2-0.9-2.8c-2.1-1.8-4.8-2.9-7.6-2.9c-1.8,0-3.7,0.3-5.2-0.6c-0.9-0.5-1.5-1.4-2.4-1.9c-1.9-1.1-4.4-0.1-6.3,1
									c-2.7,1.5-5.4,3.3-6.4,6.3c-1,2.9,1.2,6.8,4.2,6.4c0.8-0.1,1.6-0.5,2.3-0.3c1.1,0.3,1.6,1.6,1.7,2.7c0.1,1.1,0,2.3,0.5,3.3
									c0.5,1,2.1,1.5,2.7,0.5c1.4-1.4,1.3-3.6,0.9-5.6c-0.3-1.9-0.7-4.1,0.4-5.7c1.2-1.6,4.5-1.1,4.3,0.9c-0.1,1.2-1.4,2-1.4,3.2
									c0.1,1.2,1.5,1.8,2.7,1.8c1.2,0,2.4-0.5,3.5-0.2c1.2,0.3,2.1,1.8,1.3,2.6c-1.4,1.6-5.2-1.2-6,0.9c-0.2,0.5,0,1.1-0.1,1.7
									c-0.1,1.7-2.3,2.3-4,2.5c-1.7,0.2-3.5,0.4-5.1-0.4c-1.6-0.7-2.6-2.8-1.7-4.2c-0.9-0.6-2.2,0-2.7,1c-0.5,1-0.3,2.1-0.2,3.2
									c-1.8-0.4-3.4,1.1-4.5,2.6c-1,1.5-2,3.3-3.8,3.9c-1.8,0.5-4.2-0.2-5.1,1.4c-1.2,2.1,2.3,4.7,1.1,6.8
									c-0.7,1.2-2.4,1.1-3.7,1.5c-3.5,1-4.7,6.1-2.3,8.9c2.4,2.7,7.2,2.6,9.7,0c1.8-1.8,2.5-4.3,3.7-6.5c1.3-2.1,3.7-4.1,6.1-3.4
									c0.9,0.3,1.7,0.9,2.5,1.6c1.2,1,2.3,2,3.5,2.9c0.7,0.6,1.6,1.4,1.5,2.4c-0.1,0.8-0.7,1.4-0.9,2.1c-0.7,2.1,2.3,4.1,4.2,3
									c1.9-1.2,2.1-4.1,0.8-5.9c-1.8-2.5-5.9-3.8-5.8-6.9c2.1-1.7,5.4,0.1,6.6,2.5c1.2,2.4,1.3,5.3,2.3,7.8c1,2.5,3.9,4.7,6.3,3.5
									c-0.6-2.2-1.2-4.3-1.9-6.5c1.5-1.2,3.3,2.2,5.1,1.6c1.1-0.3,1.3-2,0.8-3c-0.5-1.1-1.3-2-1.6-3.2c-0.3-2.1,2-4,4.2-3.7
									c2.1,0.3,3.7,2.4,4.1,4.5c0.2,0.8,0.2,1.7,0.6,2.5c0.8,1.7,2.9,2.2,4.6,2.9c1.7,0.7,3.5,2.4,2.8,4.1
									c-0.3,0.7-1.1,1.5-0.8,2.2c0.3,0.7,1.3,1,1.3,1.7c0,0.5-0.5,0.8-1,1c-1.2,0.5-2.4,0.6-3.5,1.2c-1.1,0.5-2.1,1.6-2,2.8
									c0.1,1.7,2.2,2.6,3.2,4c0.9,1.4,0.8,3.2,1.4,4.8c0.6,1.4,1.7,2.6,2.6,3.8c2.9,3.9,3.6,9,5,13.7c0.6,2.1,1.8,4.5,3.9,4.9
									c1.2,0.2,2.4-0.2,3.5-0.7c3.1-1.2,6.4-2.6,8.5-5.1c2.2-2.5,2.9-6.7,0.7-9.2c-0.3-0.3-0.6-0.6-1.1-0.7
									c-0.6-0.1-1.1,0.3-1.6,0.6c-1.6,0.7-3.5,0.1-4.9-1c-1.3-1.2-2.1-2.8-2.9-4.3c-0.9-1.7-1.7-3.5-2.6-5.2
									c1-0.9,2.7-0.5,3.7,0.3c1,0.9,1.7,2.1,2.5,3.1c2.6,3.2,6.9,4.7,11,5.2c1,0.1,2.1,0.2,3.1,0.6c3.1,1.4,4,6,7.2,6.9
									c0.9,0.3,1.9,0.2,2.8,0.6c1.3,0.6,1.9,2.1,2.3,3.5c0.7,2.6,1,5.3,2,7.7c1.1,2.4,3.2,4.7,5.9,4.7c1.7,0,3.2-0.8,4.4-2v0
									c0.1-2.4,0.2-4.8,0.2-7.3C258.5,173.3,258.5,172.8,258.5,172.3z"/>
							</g>
						</g>
					</g>
				</g>
				<g>
					<g>
						<g>
							<g>
								<path class="st0" d="M213.9,218c-1.6,0.3-2,1.3-2.9,2.5c-1.2,1.6-2.8,3.2-3.9,4.7c-1.8,2.6-0.2,6.8-2.5,9
									c-0.5,0.5-1.1,0.8-1.5,1.3c-0.9,1.1-0.6,3,0.6,3.8c1.2,0.9,2.9,0.8,4.1,0.1c1.2-0.7,2.1-2.1,2.5-3.4c0.3-1,0.5-2.1,1.3-2.8
									c1.3-1.2,3.4-0.3,5.2-0.6C224.3,231.6,221.1,216.6,213.9,218z"/>
							</g>
						</g>
					</g>
				</g>
			</g>
		</g>
	</g>
	<g>
		<g>
			<g>
				<g>
					<g>
						<g>
							<g>
								<path class="st0" d="M211.7,442.9l-39.3,12.3c-2.7,0.9-5.6-0.7-6.5-3.4l-17-54.4c-0.9-2.7,0.7-5.6,3.4-6.5l24.9-7.8
									l25.5,13.9l12.3,39.5C215.9,439.2,214.4,442,211.7,442.9z"/>
							</g>
						</g>
					</g>
					<g>
						<g>
							<g>
								<path class="st1" d="M211.4,443l-38.9,12.2c-2.8,0.9-5.8-0.7-6.7-3.5l-4.5-14.4l49.2-15.4l4.5,14.3
									C215.9,439,214.3,442.1,211.4,443z"/>
							</g>
						</g>
					</g>
					<g>
						<path class="st2" d="M182.3,436.7l2.5,8l-1.8,0.6l-1-3.3l-3.5,1.1l1,3.3l-1.8,0.6l-2.5-8l1.8-0.6l1,3.1l3.5-1.1l-1-3.1
							L182.3,436.7z"/>
						<path class="st2" d="M190.2,442.7c-0.3,0.4-0.7,0.7-1.3,0.8c-1.4,0.4-2.4-0.1-2.9-1.5l-0.8-2.5l-0.9,0.3l-0.4-1.4l0.9-0.3
							l-0.5-1.5l1.7-0.5l0.5,1.5l1.5-0.5l0.4,1.4L187,439l0.8,2.5c0.2,0.5,0.5,0.7,1,0.6c0.3-0.1,0.5-0.2,0.6-0.4L190.2,442.7z"/>
						<path class="st2" d="M200,436.1l1.1,3.5l-1.7,0.5l-1-3.2c-0.3-1-0.9-1.3-1.6-1.1c-0.8,0.2-1.1,0.9-0.8,2l1,3.1l-1.7,0.5
							l-1-3.2c-0.3-1-0.9-1.3-1.6-1.1c-0.8,0.2-1.1,0.9-0.8,2l1,3.1l-1.7,0.5l-1.9-6.1l1.6-0.5l0.2,0.7c0.3-0.7,0.8-1.1,1.6-1.4
							c0.8-0.3,1.6-0.1,2.2,0.4c0.3-0.8,0.9-1.4,1.8-1.7C198.2,433.7,199.5,434.2,200,436.1z"/>
						<path class="st2" d="M200,430.7l1.7-0.5l2.6,8.4l-1.7,0.5L200,430.7z"/>
					</g>
				</g>
			</g>
		</g>
		<g>
			<path class="st2" d="M174.4,409.8l-5.7,4.8l7.4,0.7l0.9,2.8l-10.6-1.2l-0.9-3l8.1-7L174.4,409.8z"/>
			<path class="st2" d="M178.8,399.2l2.7-0.9l0.2,23.4l-2.7,0.9L178.8,399.2z"/>
			<path class="st2" d="M194.3,405l0.9,3l-8.1,7l-0.9-2.8l5.7-4.8l-7.4-0.7l-0.9-2.8L194.3,405z"/>
		</g>
		<g>
			<g class="st5">
				<g>
					<g>
						<path class="st2" d="M177.2,383.1l4.8,15.3c0.8,2.5,3.5,3.9,6,3.1l14.7-4.6L177.2,383.1z"/>
					</g>
				</g>
			</g>
			<g>
				<g>
					<g>
						<path class="st1" d="M182.6,399.7c0,0,1,3.8,5.6,3.7c0.2,0,0.3,0,0.5,0c2-0.3,15.4-2,15.3-2.3c-0.1-0.3-1.3-4.1-1.3-4.1
							l-14.7,4.6C188,401.6,184.3,402.6,182.6,399.7z"/>
					</g>
				</g>
			</g>
		</g>
	</g>
</g>
<g id="Background_Simple" class="st6">
	<g class="st7">
		<path class="st3" d="M461.2,361.8l-0.9-1.4c-7.2-11.9-20.3-19.1-34-18.2c-1.8,0.1-3.5,0.4-5.3,0.7c-12.5,2.7-23.4,12.1-27.9,24.3
			c-2.7,7.1-3.4,15.3-8.4,21c-6.6,7.4-17.7,7.6-27.5,7.3c-9.8-0.3-20.9,0-27.5,7.3c-4.1,4.6-5.4,11.2-5.1,17.4
			c0.9,16.4,12.3,31.1,26.9,38.4c14.6,7.3,31.7,8,47.6,4.7c22.3-4.5,43.5-16.8,56.3-35.9C468.2,408.4,471.5,382.4,461.2,361.8z"/>
	</g>
	<g class="st7">
		<path class="st3" d="M27.7,131.9l0.9,1.4c7.2,11.9,20.3,19.1,34,18.2c1.8-0.1,3.5-0.4,5.3-0.7c12.5-2.7,23.4-12.1,27.9-24.3
			c2.7-7.1,3.4-15.3,8.4-21c6.6-7.4,17.7-7.6,27.5-7.3c9.8,0.3,20.9,0,27.5-7.3c4.1-4.6,5.4-11.2,5.1-17.4
			c-0.9-16.4-12.3-31.1-26.9-38.4c-14.6-7.3-31.7-8-47.6-4.7c-22.3,4.5-43.5,16.8-56.3,35.9S17.5,111.3,27.7,131.9z"/>
	</g>
	<g class="st7">
		<circle class="st3" cx="46" cy="199" r="16.6"/>
	</g>
	<g class="st7">
		<circle class="st3" cx="451.1" cy="293.2" r="16.6"/>
	</g>
</g>
<g id="Floor">
	<g>
		<g>
			<path class="st8" d="M455.9,476.9c0,0.1-92.2,0.3-205.9,0.3c-113.8,0-206-0.1-206-0.3s92.2-0.3,206-0.3
				C363.7,476.7,455.9,476.8,455.9,476.9z"/>
		</g>
	</g>
</g>
<g id="Window">
	<g>
		<g>
			<g>
				<rect x="95.9" y="129.6" class="st2" width="298.7" height="224.4"/>
			</g>
			<g>
				<g>
					<path class="st8" d="M394.6,354.1c0,0,0-0.4,0-1.1c0-0.7,0-1.7,0-3.1c0-2.7,0-6.7,0-11.9c0-10.4-0.1-25.8-0.1-45.4
						c-0.1-39.1-0.1-95.2-0.2-163l0.4,0.4c-84.3,0-187.4,0.1-298.7,0.1h0l0.5-0.5c0,80.7,0,157.1-0.1,224.4l-0.5-0.5
						c88.5,0.1,163.1,0.2,215.6,0.2c26.3,0.1,47,0.1,61.2,0.1c7.1,0,12.6,0,16.2,0.1c1.8,0,3.2,0,4.2,0c0.5,0,0.8,0,1.1,0
						C394.4,354.1,394.6,354.1,394.6,354.1s-0.1,0-0.3,0c-0.2,0-0.6,0-1,0c-0.9,0-2.3,0-4.1,0c-3.7,0-9.1,0-16.2,0.1
						c-14.2,0-34.9,0.1-61.1,0.1c-52.6,0.1-127.3,0.1-215.9,0.2l-0.5,0l0-0.5c0-67.3,0-143.7-0.1-224.4l0-0.5h0.5h0
						c111.2,0,214.3,0.1,298.7,0.1l0.4,0l0,0.4c-0.1,68-0.2,124.1-0.2,163.3c0,19.5-0.1,34.8-0.1,45.3c0,5.2,0,9.2,0,11.9
						c0,1.3,0,2.3,0,3C394.6,353.7,394.6,354.1,394.6,354.1z"/>
				</g>
			</g>
		</g>
		<g>
			<g>
				<path class="st8" d="M393.1,157.1c0,0-0.3,0-0.8,0.1c-0.5,0-1.3,0-2.2,0c-2,0-4.8,0.1-8.5,0.1c-7.4,0.1-18.1,0.1-31.3,0.1
					c-26.5,0-63-0.2-103.4-0.5c-40.4-0.3-76.9-0.6-103.4-0.8c-13.2-0.1-23.9-0.2-31.3-0.2c-3.7,0-6.6-0.1-8.5-0.1
					c-1,0-1.7,0-2.2-0.1c-0.5,0-0.8,0-0.8-0.1s0.3,0,0.8-0.1c0.5,0,1.3,0,2.2,0c2,0,4.8-0.1,8.5-0.1c7.4-0.1,18.1-0.1,31.3-0.1
					c26.5,0,63,0.2,103.4,0.5c40.4,0.3,76.9,0.6,103.3,0.8c13.2,0.1,23.9,0.2,31.3,0.2c3.7,0,6.6,0.1,8.5,0.1c1,0,1.7,0,2.2,0.1
					C392.8,157.1,393.1,157.1,393.1,157.1z"/>
			</g>
		</g>
		<g>
			<path class="st8" d="M115.4,141c0,1.9-1.6,3.5-3.5,3.5c-1.9,0-3.5-1.6-3.5-3.5c0-1.9,1.6-3.5,3.5-3.5
				C113.8,137.5,115.4,139.1,115.4,141z"/>
		</g>
		<g>
			<path class="st8" d="M129.5,141c0,1.9-1.6,3.5-3.5,3.5s-3.5-1.6-3.5-3.5c0-1.9,1.6-3.5,3.5-3.5S129.5,139.1,129.5,141z"/>
		</g>
		<g>
			<circle class="st8" cx="140" cy="141" r="3.5"/>
		</g>
	</g>
	<g>
		<rect x="147.9" y="287.4" class="st0" width="61.4" height="45.9"/>
	</g>
	<g>
		<rect x="215.3" y="287.4" class="st0" width="61.4" height="45.9"/>
	</g>
	<g>
		<rect x="293.9" y="287.4" class="st0" width="61.4" height="45.9"/>
	</g>
</g>
<g id="Rocket">
	<g>
		<g>
			<path class="st3" d="M460.8,177.9c-1.9-34.6-38.1-52.1-56.6-54.3L389.4,141c11.9-1.8,41.6,14.8,43.1,26.7
				c1.4,12-7.7,27.3-19.7,28.4c-9.4,0.9-25.2-7.5-31.2-0.2c-15.1-13.5-41-12.4-54.9,2.4c-10.7-3.8-23.1-2.5-32.8,3.5
				c-9.6,6-16.3,16.6-17.6,27.9l55.7,32.4c0,0,23.2,20.8,39.1,8c5.4-4.4,7.5-10.7,8-16.7c1.1,0.1,2.1,0.1,3.2-0.2
				c4-1.1,7-4.7,8.3-8.6c0.2-0.5,0.3-1,0.4-1.5c13.5,3,32-0.4,42.9-7.2C449.7,226,461.8,196.5,460.8,177.9z"/>
		</g>
		<g>
			<g>
				<path class="st8" d="M385.5,202.7c0,0-0.1-0.1-0.2-0.3c-0.1-0.2-0.3-0.5-0.6-0.8c-0.2-0.4-0.5-0.8-0.9-1.3
					c-0.4-0.5-0.8-1.1-1.4-1.7c-2.1-2.5-5.6-6-10.8-8.7c-2.6-1.4-5.6-2.6-9-3.3c-3.4-0.7-7.1-1-11-0.5c-7.7,0.9-16,4.7-22,11.4
					c-0.8,0.9-1.6,1.9-2.3,2.8l-0.1,0.2l-0.2-0.1c-7.7-3.8-16.3-4.3-23.5-2.6c-1.8,0.4-3.5,1-5.1,1.6c-1.6,0.7-3.1,1.4-4.5,2.3
					c-2.8,1.6-5.3,3.5-7.3,5.4c-4,3.9-6.2,7.9-7.3,10.8c-0.3,0.7-0.5,1.4-0.7,1.9c-0.2,0.6-0.3,1.1-0.4,1.4
					c-0.1,0.4-0.2,0.7-0.2,0.9c-0.1,0.2-0.1,0.3-0.1,0.3c0,0,0-0.1,0-0.3c0-0.2,0.1-0.5,0.2-0.9c0.1-0.4,0.2-0.9,0.4-1.5
					c0.2-0.6,0.4-1.2,0.6-2c1-2.9,3.2-7.1,7.2-11c2-2,4.5-3.9,7.3-5.5c1.4-0.9,3-1.6,4.6-2.3c1.6-0.6,3.4-1.3,5.2-1.7
					c7.2-1.8,16-1.3,23.8,2.6l-0.3,0.1c0.7-0.9,1.4-1.9,2.3-2.8c6.1-6.8,14.5-10.7,22.3-11.6c3.9-0.5,7.7-0.2,11.1,0.5
					c3.4,0.7,6.5,2,9.1,3.4c5.3,2.8,8.7,6.3,10.8,8.9c0.5,0.6,1,1.2,1.3,1.8c0.4,0.5,0.7,1,0.9,1.4c0.2,0.4,0.4,0.6,0.5,0.9
					C385.5,202.6,385.5,202.7,385.5,202.7z"/>
			</g>
		</g>
		<g>
			<g>
				<path class="st8" d="M396.3,195.5c-0.1,0.1-0.8-0.4-2.1-0.9c-0.7-0.3-1.5-0.5-2.4-0.6c-0.9-0.1-1.9-0.1-3,0
					c-1.1,0.2-2,0.4-2.9,0.8c-0.8,0.4-1.6,0.8-2.1,1.2c-1.1,0.8-1.7,1.5-1.8,1.5c0,0,0.1-0.2,0.3-0.5c0.2-0.3,0.6-0.8,1.2-1.2
					c0.6-0.5,1.3-0.9,2.2-1.4c0.9-0.4,1.9-0.7,3-0.9c1.1-0.1,2.2-0.1,3.1,0c1,0.2,1.8,0.4,2.5,0.7c0.7,0.3,1.2,0.6,1.5,0.9
					C396.1,195.3,396.3,195.4,396.3,195.5z"/>
			</g>
		</g>
		<g>
			<g>
				<path class="st8" d="M412,216.5c0,0-0.6-0.3-1.6-0.7c-1.1-0.4-2.7-0.8-4.8-0.7c-2,0.1-4.5,0.8-6.6,2.6c-2.1,1.7-3.8,4.5-4.2,7.7
					l0,0.4l-0.3-0.2c-1.1-0.7-2.3-1.3-3.7-1.8c-3.5-1.3-7.2-1.4-10.3-0.6c-3.2,0.7-5.7,2.2-7.6,3.8c-1.9,1.6-3.1,3.2-3.8,4.3
					c-0.7,1.2-1.1,1.9-1.1,1.8c0,0,0.1-0.2,0.2-0.5c0.1-0.3,0.4-0.8,0.7-1.4c0.7-1.2,1.9-2.9,3.8-4.5c1.9-1.6,4.5-3.2,7.7-4
					c3.2-0.8,7-0.7,10.6,0.6c1.4,0.5,2.6,1.1,3.8,1.9l-0.4,0.2c0.4-3.4,2.2-6.2,4.4-8c2.2-1.8,4.8-2.5,6.9-2.5
					c2.1-0.1,3.8,0.4,4.8,0.8c0.5,0.2,0.9,0.4,1.2,0.6C411.9,216.4,412,216.5,412,216.5z"/>
			</g>
		</g>
		<g>
			<g>
				<path class="st8" d="M455.2,157.7c0,0,0.2,0.2,0.4,0.7c0.2,0.5,0.6,1.2,1.1,2.1c0.8,1.8,1.9,4.5,2.8,8c0.9,3.5,1.5,7.8,1.5,12.5
					c0,2.4-0.1,4.9-0.4,7.5c-0.3,2.6-0.7,5.2-1.3,7.9c-2.3,10.8-6.6,19.9-10.5,26c-1.9,3.1-3.7,5.3-5.1,6.8
					c-0.7,0.7-1.2,1.3-1.6,1.6c-0.4,0.4-0.6,0.5-0.6,0.5c0,0,0.2-0.2,0.5-0.6c0.4-0.4,0.9-0.9,1.6-1.7c1.3-1.5,3.1-3.8,4.9-6.9
					c3.8-6.1,7.9-15.2,10.3-25.9c0.6-2.7,1-5.3,1.3-7.9c0.3-2.6,0.4-5,0.4-7.4c0-4.7-0.6-9-1.4-12.5c-0.8-3.5-1.9-6.2-2.6-8.1
					c-0.4-0.9-0.7-1.6-1-2.1C455.3,157.9,455.2,157.7,455.2,157.7z"/>
			</g>
		</g>
		<g>
			<g>
				<path class="st8" d="M427.6,159c0,0,0.4,0.3,0.9,1c0.6,0.7,1.3,1.7,2.1,3c1.5,2.6,3,6.8,2.9,11.6c-0.2,4.8-1.9,8.8-3.6,11.4
					c-0.9,1.3-1.7,2.2-2.3,2.9c-0.6,0.6-1,0.9-1,0.9c-0.1-0.1,1.3-1.4,2.9-4c1.6-2.6,3.3-6.5,3.4-11.2c0.1-4.6-1.2-8.7-2.7-11.4
					C428.8,160.5,427.5,159.1,427.6,159z"/>
			</g>
		</g>
		<g>
			<g>
				<g>
					<g>
						<path class="st9" d="M390.9,132.2c2.5,3.9,5.9,7.3,9.7,9.9c2.5,1.7,5.8-0.8,4.8-3.7l0-0.1c4.5,3.5,9.3,6.7,14.3,9.5
							c3.2,1.8,6.9-1.3,5.6-4.7c-4.9-13.5-14.8-25.1-27.4-31.9L390.9,132.2z"/>
					</g>
				</g>
				<g class="st5">
					<g>
						<g>
							<path d="M396.7,132.6c0.4,0.7,0.9,1.3,1.6,1.8c0.7,0.4,1.6,0.6,2.2,0.1c1-0.7,0.9-2.3,2-2.9c1.1-0.7,2.4,0.3,3.3,1.1
								c1,0.9,1.9,1.8,2.9,2.8c0.7,0.7,1.7,1.4,2.6,1c1-0.4,1.1-1.8,0.8-2.9c-1-4.9-4.6-9.3-9.3-11.1L396.7,132.6z"/>
						</g>
					</g>
				</g>
				<g>
					<g>
						<path class="st9" d="M435.2,156.5c-0.1,1.8,1.4,3.4,3.1,3.6c1.8,0.1,3.5-1.3,3.6-3.1c0.2-1.7-1.3-3.5-3-3.7
							c-1.7-0.2-3.5,1.2-3.7,2.9"/>
					</g>
				</g>
			</g>
			<g>
				<g>
					<g>
						<path class="st3" d="M251.3,35.8c-2.8,4.4,3.4,19.7,17.5,39.4c13.9,19.3,30,30.2,30,30.2l81.5,52.3l13.8-21.5l8-12.5
							l13.8-21.5l-74-47.5C334.6,50.1,327,46.2,319,43c-6.9-2.7-15.5-5.7-24.6-7.7C270.8,30.1,254.1,31.4,251.3,35.8"/>
					</g>
				</g>
				<g>
					<g>
						<g>
							<g>
								<g>
									<path class="st9" d="M364.7,69.5c0,0,0.1-0.1,0.3-0.1c17.5-5.9,36.8-3.5,52.4,6.5l9.8,6.3l-25.9,10.8L364.7,69.5z"/>
								</g>
							</g>
							<g>
								<g>
									<g>
										<path class="st8" d="M364.7,69.5c0,0,0.1,0,0.2,0.1c0.1,0.1,0.3,0.2,0.5,0.3c0.5,0.3,1.2,0.7,2,1.3
											c1.8,1.1,4.3,2.8,7.6,4.8c6.5,4.1,15.6,9.9,26.3,16.8l-0.1,0c7.3-3,15.3-6.3,23.6-9.8c0.8-0.3,1.6-0.7,2.3-1l0,0.3
											c-1.9-1.2-3.9-2.5-5.8-3.7c-1.9-1.2-3.7-2.4-5.6-3.5c-3.7-2.2-7.5-4-11.3-5.3c-3.7-1.3-7.4-2.2-10.9-2.7
											c-1.7-0.3-3.4-0.4-5.1-0.6c-1.6-0.1-3.2-0.2-4.7-0.1c-6,0-10.8,0.9-14,1.7c-1.6,0.4-2.9,0.8-3.7,1
											C365.3,69.3,364.9,69.4,364.7,69.5c0,0,0.1,0,0.3-0.1c0.2-0.1,0.5-0.2,1-0.3c0.8-0.2,2.1-0.7,3.7-1.1
											c3.2-0.8,8-1.8,14.1-1.9c1.5-0.1,3.1,0,4.7,0.1c1.6,0.2,3.3,0.3,5.1,0.6c3.5,0.5,7.2,1.4,11,2.7c3.8,1.3,7.6,3.1,11.4,5.3
											c1.9,1.1,3.7,2.3,5.6,3.5c1.9,1.2,3.8,2.4,5.8,3.7l0.3,0.2l-0.3,0.1c-0.7,0.3-1.5,0.6-2.3,1c-8.4,3.5-16.4,6.8-23.6,9.8
											l-0.1,0l-0.1,0c-10.7-6.9-19.8-12.8-26.3-17c-3.2-2.1-5.7-3.7-7.5-4.9c-0.9-0.6-1.5-1-2-1.3c-0.2-0.1-0.4-0.2-0.5-0.3
											C364.8,69.5,364.7,69.5,364.7,69.5z"/>
									</g>
								</g>
							</g>
						</g>
						<g>
							<g>
								<g>
									<path class="st9" d="M329.2,124.9c0,0,0,0.2,0,0.3c1.9,18.2,12,34.4,27.4,44.3l9.6,6.2l-1-27.7L329.2,124.9z"/>
								</g>
							</g>
							<g>
								<g>
									<g>
										<path class="st8" d="M329.2,124.9c0,0,0.1,0,0.2,0.1c0.1,0.1,0.3,0.2,0.5,0.3c0.5,0.3,1.1,0.7,2,1.2
											c1.7,1.1,4.3,2.7,7.4,4.7c6.4,4.1,15.5,9.8,26.1,16.6l0.1,0l0,0.1c0.3,7.8,0.6,16.3,0.9,25.2c0,0.8,0.1,1.7,0.1,2.4l0,0.3
											l-0.3-0.2c-1.9-1.2-3.8-2.4-5.7-3.6c-1.9-1.2-3.7-2.3-5.5-3.6c-3.5-2.4-6.7-5.2-9.4-8c-2.7-2.8-5-5.8-6.9-8.7
											c-1-1.4-1.8-2.9-2.6-4.3c-0.7-1.5-1.5-2.8-2-4.2c-2.4-5.4-3.5-10.1-4.1-13.4c-0.3-1.6-0.4-2.9-0.6-3.8
											c0-0.4-0.1-0.7-0.1-1C329.2,125,329.2,124.9,329.2,124.9c0,0.2,0.1,0.6,0.2,1.3c0.1,0.9,0.3,2.1,0.6,3.7
											c0.6,3.2,1.8,7.9,4.2,13.3c0.6,1.4,1.3,2.7,2,4.2c0.8,1.4,1.6,2.9,2.6,4.3c1.9,2.9,4.2,5.9,6.9,8.7
											c2.7,2.8,5.9,5.5,9.4,7.9c1.7,1.2,3.6,2.4,5.5,3.6c1.9,1.2,3.8,2.4,5.7,3.6l-0.3,0.2c0-0.8-0.1-1.6-0.1-2.4
											c-0.3-8.9-0.6-17.5-0.9-25.2l0.1,0.1c-10.5-6.8-19.5-12.6-25.8-16.7c-3.2-2.1-5.7-3.7-7.4-4.8c-0.9-0.6-1.5-1-2-1.3
											c-0.2-0.1-0.4-0.3-0.5-0.3C329.3,124.9,329.2,124.9,329.2,124.9z"/>
									</g>
								</g>
							</g>
						</g>
						<g>
							<path class="st9" d="M251.3,35.8c-2.3,3.3,1,13.3,9.1,26.8L282.4,33C266.6,31.1,254.3,31.6,251.3,35.8z"/>
						</g>
					</g>
					<g>
						<g>
							<g>
								<line class="st3" x1="367.4" y1="149.4" x2="402.2" y2="94.3"/>
							</g>
						</g>
						<g>
							<g>
								<g>
									<path class="st8" d="M402.2,94.3c0.1,0.1-7.7,12.4-17.3,27.6c-9.6,15.2-17.5,27.5-17.6,27.4c-0.1-0.1,7.7-12.4,17.3-27.6
										C394.3,106.6,402.2,94.3,402.2,94.3z"/>
								</g>
							</g>
						</g>
					</g>
					<g>
						<g>
							<g>
								<line class="st3" x1="369.7" y1="151.2" x2="404.6" y2="96.1"/>
							</g>
						</g>
						<g>
							<g>
								<g>
									<path class="st8" d="M404.6,96.1c0.1,0.1-7.7,12.4-17.3,27.6c-9.6,15.2-17.5,27.5-17.6,27.4c-0.1-0.1,7.7-12.4,17.3-27.6
										C396.6,108.4,404.5,96.1,404.6,96.1z"/>
								</g>
							</g>
						</g>
					</g>
					<g>
						<g>
							<g>
								<line class="st3" x1="372.3" y1="152.8" x2="407.2" y2="97.8"/>
							</g>
						</g>
						<g>
							<g>
								<g>
									<path class="st8" d="M407.2,97.8c0.1,0.1-7.7,12.4-17.3,27.6c-9.6,15.2-17.5,27.5-17.6,27.4c-0.1-0.1,7.7-12.4,17.3-27.6
										C399.2,110,407.1,97.7,407.2,97.8z"/>
								</g>
							</g>
						</g>
					</g>
					<g>
						<g>
							<g>
								<line class="st3" x1="375" y1="154.5" x2="409.8" y2="99.4"/>
							</g>
						</g>
						<g>
							<g>
								<g>
									<path class="st8" d="M409.8,99.4c0.1,0.1-7.7,12.4-17.3,27.6c-9.6,15.2-17.5,27.5-17.6,27.4c-0.1-0.1,7.7-12.4,17.3-27.6
										C401.9,111.6,409.7,99.4,409.8,99.4z"/>
								</g>
							</g>
						</g>
					</g>
					<g>
						<g>
							<g>
								<line class="st3" x1="377.6" y1="156.1" x2="412.5" y2="101"/>
							</g>
						</g>
						<g>
							<g>
								<g>
									<path class="st8" d="M412.5,101c0.1,0.1-7.7,12.4-17.3,27.6c-9.6,15.2-17.5,27.5-17.6,27.4c-0.1-0.1,7.7-12.4,17.3-27.6
										C404.5,113.3,412.4,101,412.5,101z"/>
								</g>
							</g>
						</g>
					</g>
					<g>
						<g>
							<g>
								<path class="st8" d="M347.1,97.1c0,0,0.1,0.1,0.4,0.2c0.3,0.1,0.7,0.4,1.1,0.6c1,0.6,2.4,1.4,4.1,2.5
									c3.4,2.2,8.2,5.2,13.4,8.6c5.2,3.4,9.9,6.5,13.3,8.8c1.7,1.1,3,2,4,2.7c0.4,0.3,0.8,0.6,1.1,0.8c0.2,0.2,0.4,0.3,0.4,0.3
									c0,0-0.1-0.1-0.4-0.2c-0.3-0.2-0.7-0.4-1.1-0.7c-1-0.6-2.4-1.5-4.1-2.6c-3.4-2.2-8.1-5.3-13.3-8.7
									c-5.2-3.4-9.9-6.5-13.3-8.7c-1.7-1.1-3.1-2-4-2.6c-0.5-0.3-0.8-0.6-1.1-0.7C347.2,97.2,347.1,97.1,347.1,97.1z"/>
							</g>
						</g>
					</g>
					<g>
						<g>
							<g>
								<path class="st8" d="M364.7,69.5c0.1,0.1-7.7,12.4-17.5,27.6c-9.7,15.2-17.7,27.4-17.8,27.4c-0.1-0.1,7.7-12.4,17.5-27.6
									C356.7,81.7,364.7,69.4,364.7,69.5z"/>
							</g>
						</g>
					</g>
					<g>
						<g>
							<g>
								<path class="st8" d="M376.8,109.9c0,0-0.1-0.2,0-0.5c0-0.3,0.2-0.8,0.6-1.2c0.4-0.4,1.2-0.7,1.9-0.5
									c0.8,0.2,1.5,0.9,1.6,1.9c0.1,0.9-0.5,1.8-1.2,2.1c-0.7,0.4-1.5,0.2-2-0.1c-0.5-0.3-0.8-0.7-0.9-1.1
									c-0.1-0.3-0.1-0.5-0.1-0.5c0,0,0.1,0.2,0.2,0.4c0.1,0.3,0.4,0.6,0.9,0.9c0.4,0.3,1.1,0.4,1.7,0c0.6-0.3,1.1-1,1-1.8
									c-0.1-0.8-0.7-1.4-1.3-1.6c-0.7-0.2-1.3,0-1.7,0.4c-0.4,0.3-0.6,0.8-0.7,1C376.9,109.7,376.9,109.9,376.8,109.9z"/>
							</g>
						</g>
					</g>
					<g>
						<g>
							<g>
								<path class="st8" d="M361.3,99.5c0,0-0.1-0.2,0-0.5c0-0.3,0.2-0.8,0.6-1.2c0.4-0.4,1.2-0.7,1.9-0.5c0.8,0.2,1.5,0.9,1.6,1.9
									c0.1,0.9-0.5,1.8-1.2,2.1c-0.7,0.4-1.5,0.2-2-0.1c-0.5-0.3-0.8-0.7-0.9-1.1c-0.1-0.3-0.1-0.5-0.1-0.5c0,0,0.1,0.2,0.2,0.4
									c0.1,0.3,0.4,0.6,0.9,0.9c0.4,0.3,1.1,0.4,1.7,0c0.6-0.3,1.1-1,1-1.8c-0.1-0.8-0.7-1.4-1.3-1.6c-0.7-0.2-1.3,0-1.7,0.4
									c-0.4,0.3-0.6,0.8-0.7,1C361.3,99.3,361.3,99.5,361.3,99.5z"/>
							</g>
						</g>
					</g>
					<g>
						<g>
							<g>
								<path class="st8" d="M331.3,92.3c0,0-0.1-0.2,0-0.5c0-0.3,0.2-0.8,0.6-1.2c0.4-0.4,1.2-0.7,1.9-0.5c0.8,0.2,1.5,0.9,1.6,1.9
									c0.1,0.9-0.5,1.8-1.2,2.1c-0.7,0.4-1.5,0.2-2-0.1c-0.5-0.3-0.8-0.7-0.9-1c-0.1-0.3-0.1-0.5-0.1-0.5c0,0,0.1,0.2,0.2,0.4
									c0.1,0.3,0.4,0.6,0.9,0.9c0.4,0.3,1.1,0.4,1.7,0c0.6-0.3,1.1-1,1-1.8c-0.1-0.8-0.7-1.4-1.3-1.6c-0.7-0.2-1.3,0-1.7,0.4
									c-0.4,0.3-0.6,0.8-0.7,1C331.3,92.1,331.3,92.3,331.3,92.3z"/>
							</g>
						</g>
					</g>
					<g>
						<g>
							<g>
								<path class="st8" d="M317.9,89c0.1-0.1,5.8,3.1,12.8,7c7,4,12.6,7.2,12.6,7.3c-0.1,0.1-5.8-3.1-12.8-7
									C323.5,92.4,317.9,89.1,317.9,89z"/>
							</g>
						</g>
					</g>
					<g class="st5">
						<g>
							<g>
								<path d="M364.3,147.4c0,0-23.3-15.7-35.1-22.5c4.1,5.8,8.8,12.5,14.4,16.8C349.3,146,357.2,148.2,364.3,147.4z"/>
							</g>
						</g>
					</g>
				</g>
				<g>
					<g>
						
							<ellipse transform="matrix(0.2819 -0.9594 0.9594 0.2819 151.3182 347.06)" class="st2" cx="307.5" cy="72.4" rx="19.7" ry="19.7"/>
					</g>
					<g>
						<g>
							<path class="st8" d="M327.2,73.6c0,0,0-0.1,0-0.3c0-0.2,0-0.5,0-0.9c0-0.4,0-0.9-0.1-1.5c-0.1-0.6-0.1-1.3-0.3-2
								c-0.3-1.5-0.9-3.4-1.9-5.3c-1-2-2.5-4-4.7-5.8c-2.1-1.8-4.8-3.3-8-4.1c-3.2-0.7-6.8-0.8-10.3,0.3c-1.8,0.5-3.5,1.3-5.1,2.4
								c-0.8,0.5-1.6,1.1-2.3,1.8c-0.7,0.7-1.4,1.4-2,2.1c-2.6,3-4.2,7.1-4.4,11.3c-0.2,4.2,0.9,8.4,3.1,11.7
								c0.5,0.9,1.2,1.6,1.8,2.4c0.7,0.7,1.3,1.4,2.1,2c1.5,1.2,3.1,2.2,4.8,2.9c3.4,1.5,6.9,1.8,10.2,1.4c3.2-0.4,6.1-1.6,8.4-3.2
								c2.3-1.5,4.1-3.4,5.3-5.2c1.2-1.8,2.1-3.6,2.5-5.1c0.3-0.7,0.4-1.4,0.5-2c0.2-0.6,0.2-1.1,0.3-1.5c0.1-0.4,0.1-0.7,0.1-0.9
								C327.2,73.7,327.2,73.6,327.2,73.6c0,0,0,0.1,0,0.3c0,0.2,0,0.5-0.1,0.9c0,0.4-0.1,0.9-0.2,1.5c-0.1,0.6-0.2,1.3-0.5,2
								c-0.4,1.5-1.2,3.3-2.4,5.2c-1.2,1.9-3,3.8-5.3,5.4c-2.3,1.6-5.3,2.9-8.6,3.3c-3.3,0.4-7,0.1-10.4-1.4c-1.7-0.7-3.4-1.7-4.9-3
								c-0.8-0.6-1.5-1.3-2.2-2c-0.6-0.8-1.3-1.5-1.8-2.4c-1.1-1.7-2-3.6-2.5-5.7c-0.5-2-0.8-4.2-0.7-6.4c0.3-4.3,1.9-8.4,4.6-11.6
								c0.6-0.8,1.4-1.5,2.1-2.2c0.8-0.6,1.5-1.3,2.4-1.8c1.6-1.1,3.4-1.9,5.2-2.4c3.6-1.1,7.3-1,10.5-0.2c3.2,0.8,6,2.4,8.1,4.2
								c2.1,1.8,3.7,4,4.7,6c1,2,1.6,3.9,1.8,5.4c0.2,0.8,0.2,1.5,0.3,2.1c0.1,0.6,0.1,1.1,0,1.5c0,0.4,0,0.7,0,0.9
								C327.2,73.5,327.2,73.6,327.2,73.6z"/>
						</g>
					</g>
				</g>
			</g>
			<g>
				<g>
					<g>
						<path class="st8" d="M251.3,35.8c0,0,0-0.1,0.1-0.2c0.1-0.1,0.2-0.3,0.5-0.5c0.4-0.4,1.2-0.9,2.3-1.4
							c2.2-0.9,5.7-1.6,10.3-1.8c4.5-0.2,10.1,0.1,16.6,0.9c6.4,0.9,13.8,2.2,21.7,4.4c4,1.1,8.1,2.5,12.3,4c4.2,1.6,8.6,3.4,13,5.5
							c4.4,2.1,8.8,4.6,13.2,7.4c4.4,2.8,8.9,5.7,13.6,8.7C373.4,74.8,394.1,88,416,102l0.2,0.1l-0.1,0.2
							c-5.7,8.9-11.7,18.2-17.8,27.7c-6.1,9.5-12.1,18.8-17.8,27.7l-0.1,0.2l-0.2-0.1c-21.9-14.1-42.5-27.3-61.1-39.3
							c-4.7-3-9.2-5.9-13.6-8.7c-2.2-1.4-4.4-2.8-6.5-4.2c-2.1-1.4-4.1-3-5.9-4.5c-7.5-6.2-13.8-12.8-19.1-19.1
							c-5.2-6.4-9.4-12.6-12.8-18.1c-3.4-5.5-6-10.5-7.8-14.7c-1.8-4.2-2.7-7.6-2.8-10c-0.1-1.2,0.1-2.1,0.3-2.7
							c0.1-0.3,0.2-0.5,0.3-0.6C251.3,35.9,251.3,35.8,251.3,35.8c0,0-0.2,0.3-0.4,0.8c-0.2,0.6-0.3,1.5-0.2,2.7
							c0.1,2.4,1.1,5.8,2.9,10c1.8,4.2,4.4,9.1,7.8,14.6c3.4,5.5,7.6,11.6,12.8,18c5.3,6.3,11.6,12.8,19.1,19
							c1.9,1.5,3.8,3.1,5.9,4.5c2.1,1.4,4.3,2.7,6.5,4.2c4.4,2.8,8.9,5.7,13.6,8.7c18.6,11.9,39.2,25.2,61.2,39.2l-0.4,0.1
							c5.7-8.9,11.7-18.2,17.8-27.7c6.1-9.5,12.1-18.8,17.8-27.7l0.1,0.4c-21.9-14.1-42.5-27.3-61.1-39.3c-4.7-3-9.2-5.9-13.6-8.7
							c-4.4-2.8-8.8-5.2-13.2-7.4c-4.4-2.1-8.7-3.9-12.9-5.5c-4.2-1.6-8.3-2.9-12.3-4.1c-7.9-2.3-15.2-3.6-21.6-4.5
							c-6.4-0.9-12-1.1-16.5-1c-4.5,0.2-8,0.8-10.2,1.7c-1.1,0.4-1.9,0.9-2.3,1.4C251.5,35.5,251.3,35.8,251.3,35.8z"/>
					</g>
				</g>
			</g>
		</g>
	</g>
</g>
<g id="Search_bar">
	<g>
		<g>
			<g>
				<path class="st2" d="M332,262.2H158.4c-11.3,0-20.5-9.2-20.5-20.5l0,0c0-11.3,9.2-20.5,20.5-20.5H332c11.3,0,20.5,9.2,20.5,20.5
					l0,0C352.6,253,343.4,262.2,332,262.2z"/>
			</g>
			<g>
				<g>
					<path class="st8" d="M332,262.2c0,0,0.4,0,1.2-0.1c0.4,0,0.9,0,1.5-0.2c0.6-0.1,1.3-0.2,2.1-0.4c0.4-0.1,0.8-0.2,1.2-0.3
						c0.4-0.1,0.9-0.3,1.3-0.5c0.2-0.1,0.5-0.2,0.7-0.3c0.2-0.1,0.5-0.2,0.7-0.3c0.5-0.2,1-0.4,1.5-0.8c2-1.1,4.1-2.8,6-5.2
						c0.5-0.6,0.9-1.2,1.3-1.9c0.4-0.7,0.8-1.4,1.1-2.1c0.4-0.7,0.6-1.6,0.9-2.4c0.1-0.4,0.2-0.8,0.3-1.3l0.2-0.7l0.1-0.7
						c0.1-0.5,0.1-0.9,0.2-1.4c0-0.5,0-0.9,0.1-1.4l0-0.7l0-0.7c0-0.5,0-1-0.1-1.5c-0.2-2-0.8-4-1.6-5.9c-1.7-3.9-4.8-7.5-9.1-9.8
						c-2.1-1.1-4.5-1.9-7-2.2c-2.5-0.3-5.2-0.1-7.9-0.2c-43.1,0-102.6,0-168.4,0.1c-2,0-4,0.3-6,0.9c-1.9,0.6-3.7,1.5-5.4,2.6
						c-1.6,1.1-3.1,2.5-4.4,4.1c-1.3,1.5-2.2,3.3-3,5.1c-0.8,1.8-1.2,3.8-1.4,5.7c-0.2,2-0.1,3.9,0.3,5.8c0.4,1.9,1,3.8,1.9,5.5
						c0.9,1.7,2,3.3,3.4,4.7c2.7,2.7,6.1,4.7,9.7,5.6c0.9,0.3,1.8,0.3,2.8,0.5c0.9,0,1.9,0.1,2.8,0.1c1.9,0,3.8,0,5.6,0
						c7.5,0,14.8,0,21.9,0c28.5,0,54.2,0,75.7,0.1c21.5,0,39,0.1,51,0.1c6,0,10.7,0,13.9,0c1.6,0,2.8,0,3.6,0
						C331.6,262.2,332,262.2,332,262.2s-0.4,0-1.2,0c-0.8,0-2,0-3.6,0c-3.2,0-7.9,0-13.9,0c-12.1,0-29.5,0-51,0.1
						c-21.6,0-47.2,0-75.7,0.1c-7.1,0-14.4,0-21.9,0c-1.9,0-3.7,0-5.6,0c-0.9,0-1.9-0.1-2.9-0.1c-0.9-0.2-1.9-0.2-2.8-0.5
						c-3.7-0.9-7.2-2.9-10-5.7c-1.4-1.4-2.5-3-3.5-4.8c-0.9-1.7-1.6-3.7-2-5.6c-0.4-2-0.5-4-0.3-6c0.2-2,0.6-4,1.4-5.9
						c0.8-1.9,1.8-3.7,3.1-5.2c1.3-1.6,2.8-3,4.5-4.2c1.7-1.1,3.6-2,5.6-2.7c2-0.6,4.1-0.9,6.1-0.9c65.8,0,125.3,0.1,168.4,0.1
						c2.7,0,5.3-0.1,7.9,0.2c2.6,0.3,5,1.1,7.1,2.3c4.3,2.3,7.5,6,9.2,10c0.8,2,1.4,4,1.6,6c0.1,0.5,0.1,1,0.1,1.5l0,0.7l0,0.7
						c0,0.5-0.1,1-0.1,1.4c-0.1,0.5-0.1,0.9-0.2,1.4l-0.1,0.7l-0.2,0.7c-0.1,0.4-0.2,0.9-0.3,1.3c-0.3,0.8-0.6,1.7-0.9,2.4
						c-0.4,0.8-0.7,1.5-1.2,2.2c-0.4,0.7-0.9,1.3-1.3,1.9c-1.9,2.4-4,4.1-6,5.2c-0.5,0.3-1,0.5-1.5,0.8c-0.2,0.1-0.5,0.2-0.7,0.3
						c-0.2,0.1-0.5,0.2-0.7,0.3c-0.5,0.2-0.9,0.3-1.3,0.5c-0.4,0.1-0.8,0.2-1.2,0.3c-0.8,0.2-1.5,0.3-2.1,0.4
						c-0.6,0.1-1.1,0.1-1.5,0.1C332.5,262.2,332,262.2,332,262.2z"/>
				</g>
			</g>
		</g>
		<g>
			
				<ellipse transform="matrix(0.7071 -0.7071 0.7071 0.7071 -75.1236 299.6662)" class="st2" cx="324.2" cy="240.5" rx="9.1" ry="9.1"/>
			<path class="st8" d="M324.2,250.2c-5.3,0-9.6-4.3-9.6-9.6c0-5.3,4.3-9.6,9.6-9.6c5.3,0,9.6,4.3,9.6,9.6
				C333.8,245.8,329.5,250.2,324.2,250.2z M324.2,231.9c-4.8,0-8.6,3.9-8.6,8.6c0,4.8,3.9,8.6,8.6,8.6c4.8,0,8.6-3.9,8.6-8.6
				C332.8,235.8,328.9,231.9,324.2,231.9z"/>
		</g>
		<g>
			
				<rect x="334.9" y="243.8" transform="matrix(0.5339 -0.8456 0.8456 0.5339 -53.6626 399.3596)" class="st8" width="1" height="9.1"/>
		</g>
	</g>
</g>
<g id="Text">
	<g>
		<path class="st8" d="M166.7,245l0.8-1.7c0.8,0.6,2,1,3.2,1c1.3,0,1.8-0.4,1.8-1c0-1.8-5.6-0.6-5.6-4.1c0-1.6,1.3-3,4-3
			c1.2,0,2.4,0.3,3.3,0.8l-0.7,1.7c-0.9-0.5-1.8-0.8-2.7-0.8c-1.3,0-1.8,0.5-1.8,1.1c0,1.8,5.6,0.5,5.6,4.1c0,1.6-1.3,3-4.1,3
			C169.1,246.1,167.5,245.6,166.7,245z"/>
		<path class="st8" d="M183.2,242.8h-5.6c0.2,0.9,1,1.5,2.1,1.5c0.8,0,1.3-0.2,1.9-0.7l1.1,1.2c-0.7,0.8-1.7,1.2-3,1.2
			c-2.5,0-4.2-1.6-4.2-3.8c0-2.2,1.7-3.8,3.9-3.8c2.2,0,3.8,1.5,3.8,3.8C183.3,242.4,183.2,242.7,183.2,242.8z M177.6,241.6h3.6
			c-0.2-0.9-0.8-1.5-1.8-1.5C178.5,240,177.8,240.6,177.6,241.6z"/>
		<path class="st8" d="M191,241.7v4.2h-2V245c-0.4,0.7-1.2,1-2.2,1c-1.7,0-2.8-1-2.8-2.2c0-1.3,0.9-2.2,3.2-2.2h1.7
			c0-0.9-0.5-1.5-1.7-1.5c-0.8,0-1.6,0.3-2.1,0.7l-0.8-1.5c0.8-0.6,2-0.9,3.2-0.9C189.7,238.4,191,239.5,191,241.7z M188.9,243.6
			v-0.8h-1.5c-1,0-1.3,0.4-1.3,0.9c0,0.5,0.5,0.9,1.2,0.9C188,244.6,188.6,244.3,188.9,243.6z"/>
		<path class="st8" d="M197.5,238.4v2c-0.2,0-0.3,0-0.5,0c-1.2,0-2,0.6-2,2.1v3.5h-2.1v-7.4h2v1
			C195.5,238.8,196.4,238.4,197.5,238.4z"/>
		<path class="st8" d="M198.2,242.2c0-2.2,1.7-3.8,4.1-3.8c1.5,0,2.8,0.7,3.3,1.9l-1.7,0.9c-0.4-0.7-1-1-1.7-1c-1.1,0-1.9,0.8-1.9,2
			s0.8,2,1.9,2c0.7,0,1.3-0.3,1.7-1l1.7,0.9c-0.5,1.2-1.8,1.9-3.3,1.9C199.9,246,198.2,244.4,198.2,242.2z"/>
		<path class="st8" d="M214.3,241.7v4.2h-2.1V242c0-1.2-0.5-1.7-1.5-1.7c-1,0-1.8,0.6-1.8,2v3.6h-2.1v-10.2h2.1v3.6
			c0.6-0.6,1.4-0.9,2.3-0.9C213,238.4,214.3,239.4,214.3,241.7z"/>
		<path class="st8" d="M215.7,244.7c0-0.8,0.6-1.3,1.3-1.3c0.7,0,1.3,0.5,1.3,1.3c0,0.8-0.6,1.3-1.3,1.3
			C216.3,246,215.7,245.5,215.7,244.7z"/>
		<path class="st8" d="M219.3,244.7c0-0.8,0.6-1.3,1.3-1.3c0.7,0,1.3,0.5,1.3,1.3c0,0.8-0.6,1.3-1.3,1.3
			C219.9,246,219.3,245.5,219.3,244.7z"/>
		<path class="st8" d="M222.9,244.7c0-0.8,0.6-1.3,1.3-1.3c0.7,0,1.3,0.5,1.3,1.3c0,0.8-0.6,1.3-1.3,1.3
			C223.4,246,222.9,245.5,222.9,244.7z"/>
	</g>
</g>
<g id="Document">
	<g>
		<g>
			<g>
				<g>
					<g>
						<g>
							<g>
								<g>
									<g>
										<path class="st9" d="M100.9,100.1l-32.2-17c-2.2-1.2-3.1-3.9-1.9-6.2l23.6-44.6c1.2-2.2,3.9-3.1,6.2-1.9L117,41.2
											l7.2,24.7l-17.1,32.3C105.9,100.4,103.2,101.3,100.9,100.1z"/>
									</g>
								</g>
							</g>
						</g>
					</g>
				</g>
			</g>
			<g class="st5">
				<g>
					<g>
						<g>
							<g>
								<g>
									<g>
										<path class="st2" d="M117,41.2l-6.6,12.6c-1.1,2.1-0.3,4.6,1.8,5.7l12.1,6.4L117,41.2z"/>
									</g>
								</g>
							</g>
						</g>
					</g>
				</g>
			</g>
			<g class="st10">
				<g>
					<g>
						<g>
							<g>
								<g>
									<g>
										<path d="M109.9,54.9c0,0-1.8,3,1.2,5.8c0.1,0.1,0.2,0.2,0.3,0.3c1.4,1.1,10.8,8.4,11,8.2c0.1-0.3,1.8-3.4,1.8-3.4
											l-12.1-6.4C112.1,59.4,109.1,57.8,109.9,54.9z"/>
									</g>
								</g>
							</g>
						</g>
					</g>
				</g>
			</g>
		</g>
		<g>
			<g>
				<g>
					<g>
						<g>
							<g>
								<path class="st11" d="M107.9,51.8c-0.1,0.2-3.5-1.5-7.6-3.6c-4.1-2.2-7.4-4.1-7.3-4.2c0.1-0.2,3.5,1.5,7.6,3.6
									C104.7,49.7,108,51.6,107.9,51.8z"/>
							</g>
						</g>
					</g>
				</g>
			</g>
		</g>
		<g>
			<g>
				<g>
					<g>
						<g>
							<g>
								<path class="st11" d="M113.8,64c-0.1,0.2-5.7-2.6-12.4-6.2c-6.8-3.6-12.2-6.6-12.1-6.8c0.1-0.2,5.6,2.6,12.4,6.2
									C108.4,60.8,113.9,63.8,113.8,64z"/>
							</g>
						</g>
					</g>
				</g>
			</g>
		</g>
		<g>
			<g>
				<g>
					<g>
						<g>
							<g>
								<path class="st11" d="M112.9,71.1c-0.1,0.2-6.1-2.9-13.5-6.8c-7.4-3.9-13.3-7.2-13.2-7.4c0.1-0.2,6.1,2.9,13.5,6.8
									C107,67.6,112.9,70.9,112.9,71.1z"/>
							</g>
						</g>
					</g>
				</g>
			</g>
		</g>
		<g>
			<g>
				<g>
					<g>
						<g>
							<g>
								<path class="st11" d="M109.9,76.7c-0.1,0.2-6.1-2.9-13.5-6.8C89,66,83.1,62.7,83.1,62.5c0.1-0.2,6.1,2.9,13.5,6.8
									C104.1,73.2,110,76.5,109.9,76.7z"/>
							</g>
						</g>
					</g>
				</g>
			</g>
		</g>
		<g>
			<g>
				<g>
					<g>
						<g>
							<g>
								<path class="st11" d="M106.9,82.2c-0.1,0.2-6.1-2.9-13.5-6.8c-7.4-3.9-13.3-7.2-13.2-7.4c0.1-0.2,6.1,2.9,13.5,6.8
									C101.1,78.8,107,82.1,106.9,82.2z"/>
							</g>
						</g>
					</g>
				</g>
			</g>
		</g>
		<g>
			<g>
				<g>
					<g>
						<g>
							<g>
								<path class="st11" d="M104,87.8c-0.1,0.2-6.1-2.9-13.5-6.8c-7.4-3.9-13.3-7.2-13.2-7.4c0.1-0.2,6.1,2.9,13.5,6.8
									C98.2,84.4,104.1,87.7,104,87.8z"/>
							</g>
						</g>
					</g>
				</g>
			</g>
		</g>
	</g>
</g>
<g id="Folders">
	<g>
		<g>
			<g>
				<g>
					<g>
						<g>
							<g>
								<g>
									<g>
										<g>
											<path class="st12" d="M259.8,435.6c-2.8-0.4-4.8-3-4.4-5.9l6.4-44.7c0.3-2.3,2.6-3.8,5-3.5l4.2,0.6
												c1.7,0.2,3.4-0.5,4.3-1.8l1.2-1.7c0.9-1.4,2.6-2.1,4.3-1.8l20,2.9c1.6,0.2,2.9,1.2,3.5,2.6l0.8,1.7
												c0.6,1.4,1.9,2.3,3.5,2.6l25.5,3.7c2.4,0.3,4.1,2.5,3.8,4.8l-6.6,45.7c-0.4,2.8-3,4.8-5.9,4.4L259.8,435.6z"/>
										</g>
									</g>
								</g>
							</g>
						</g>
					</g>
				</g>
				<g class="st5">
					<g>
						<g>
							<g>
								<g>
									<g>
										<g>
											<path d="M259.8,435.6c-2.8-0.4-4.8-3-4.4-5.9l6.4-44.7c0.3-2.3,2.6-3.8,5-3.5l4.2,0.6c1.7,0.2,3.4-0.5,4.3-1.8l1.2-1.7
												c0.9-1.4,2.6-2.1,4.3-1.8l20,2.9c1.6,0.2,2.9,1.2,3.5,2.6l0.8,1.7c0.6,1.4,1.9,2.3,3.5,2.6l25.5,3.7
												c2.4,0.3,4.1,2.5,3.8,4.8l-6.6,45.7c-0.4,2.8-3,4.8-5.9,4.4L259.8,435.6z"/>
										</g>
									</g>
								</g>
							</g>
						</g>
					</g>
				</g>
			</g>
			<g>
				<g>
					<g>
						<g>
							<g>
								<path class="st12" d="M306.1,386.1l-16.2-2.4l-1.1-2.9c-0.7-1.9-2.4-3.3-4.5-3.6l-15.8-2.3c-2.8-0.4-5.4,1.4-5.8,4l-0.3,1.8
									l-7,48.6c-0.4,3,1.8,5.8,5,6.3l64.3,9.2c3.2,0.5,6.1-1.6,6.6-4.6l6.6-45.9c0.3-2-1.1-3.9-3.2-4.2L306.1,386.1z"/>
							</g>
						</g>
					</g>
				</g>
			</g>
		</g>
		<g>
			
				<rect x="279.5" y="403.3" transform="matrix(0.9898 0.1423 -0.1423 0.9898 61.5952 -38.3391)" class="st2" width="38.7" height="16.3"/>
		</g>
		<g>
			<g>
				<path class="st8" d="M312.2,412.3c0,0.1-5.9-0.6-13.2-1.6c-7.3-1-13.1-2-13.1-2.1c0-0.1,5.9,0.6,13.2,1.6
					C306.3,411.2,312.2,412.2,312.2,412.3z"/>
			</g>
		</g>
		<g>
			<g>
				<path class="st8" d="M311.7,415.8c0,0.1-5.9-0.6-13.2-1.6c-7.3-1-13.1-2-13.1-2.1c0-0.1,5.9,0.6,13.2,1.6
					C305.8,414.7,311.7,415.6,311.7,415.8z"/>
			</g>
		</g>
	</g>
	<g>
		<g>
			<g>
				<g>
					<g>
						<g>
							<g>
								<g>
									<g>
										<g>
											<path class="st9" d="M375.9,415.7c-1.8,0.7-3.7-0.2-4.4-2l-10.6-27.7c-0.5-1.4,0.2-3,1.7-3.6l2.6-1
												c1.1-0.4,1.8-1.4,1.9-2.4l0.1-1.4c0.1-1.1,0.8-2,1.9-2.4l12.4-4.7c1-0.4,2-0.2,2.8,0.4l1,0.7c0.8,0.6,1.9,0.7,2.8,0.4
												l15.8-6c1.5-0.6,3.2,0.1,3.7,1.5l10.8,28.3c0.7,1.8-0.2,3.7-2,4.4L375.9,415.7z"/>
										</g>
									</g>
								</g>
							</g>
						</g>
					</g>
				</g>
				<g class="st5">
					<g>
						<g>
							<g>
								<g>
									<g>
										<g>
											<path d="M375.9,415.7c-1.8,0.7-3.7-0.2-4.4-2l-10.6-27.7c-0.5-1.4,0.2-3,1.7-3.6l2.6-1c1.1-0.4,1.8-1.4,1.9-2.4l0.1-1.4
												c0.1-1.1,0.8-2,1.9-2.4l12.4-4.7c1-0.4,2-0.2,2.8,0.4l1,0.7c0.8,0.6,1.9,0.7,2.8,0.4l15.8-6c1.5-0.6,3.2,0.1,3.7,1.5
												l10.8,28.3c0.7,1.8-0.2,3.7-2,4.4L375.9,415.7z"/>
										</g>
									</g>
								</g>
							</g>
						</g>
					</g>
				</g>
			</g>
			<g>
				<g>
					<g>
						<g>
							<g>
								<path class="st9" d="M386.6,372.6l-10,3.8l-1.5-1.3c-1-0.9-2.4-1.1-3.7-0.6l-9.8,3.8c-1.7,0.7-2.7,2.5-2,4.2l0.4,1.1
									l11.5,30.1c0.7,1.9,2.9,2.7,4.9,2l39.8-15.2c2-0.8,3-2.9,2.3-4.7l-10.9-28.4c-0.5-1.3-1.9-1.9-3.2-1.4L386.6,372.6z"/>
							</g>
						</g>
					</g>
				</g>
			</g>
		</g>
		<g>
			
				<rect x="377.8" y="384.1" transform="matrix(0.9339 -0.3575 0.3575 0.9339 -113.4002 165.3444)" class="st2" width="25.4" height="10.7"/>
		</g>
		<g>
			<g>
				<path class="st8" d="M398.5,385.7c0.1,0.1-3.6,1.6-8,3.4c-4.5,1.7-8.2,3-8.2,2.9c-0.1-0.1,3.6-1.6,8-3.4
					C394.8,386.8,398.4,385.5,398.5,385.7z"/>
			</g>
		</g>
		<g>
			<g>
				<path class="st8" d="M399.3,387.8c0.1,0.1-3.6,1.6-8,3.4c-4.5,1.7-8.2,3-8.2,2.9c-0.1-0.1,3.6-1.6,8-3.4
					C395.6,388.9,399.3,387.7,399.3,387.8z"/>
			</g>
		</g>
	</g>
</g>
<g id="Plant">
	<g>
		<g>
			<g>
				<g>
					<path class="st9" d="M415.8,433c2,0.9,3.5,2.7,4.2,4.8c0.7,2.1,0.8,4.3,0.6,6.5c-0.5,4.2-2.9,8.5-5.5,11.9
						c-3.6-3.1-4.4-8.5-4.6-11.3C410.2,440.5,412.1,432.4,415.8,433"/>
				</g>
			</g>
		</g>
		<g>
			<g>
				<g>
					<path class="st9" d="M419.3,463.1c-0.6-2.4,0.4-5,2.3-6.6c1.8-1.6,4.4-2.3,6.8-2.1c1.1,0.1,2.4,0.4,3,1.3c0.6,0.9,0.5,2.1,0,3
						c-0.5,0.9-1.3,1.6-2.2,2.2C426.1,462.9,422.8,464.2,419.3,463.1"/>
				</g>
			</g>
		</g>
		<g>
			<g>
				<g>
					<g>
						<path class="st8" d="M414.8,476.1c0,0,0-0.3,0.1-0.9c0.1-0.6,0.3-1.4,0.4-2.3c0.4-2,0.9-4.8,2.4-7.5c1.5-2.7,3.6-4.7,5.4-5.7
							c0.9-0.5,1.6-0.8,2.2-1c0.3-0.1,0.5-0.1,0.6-0.2c0.1,0,0.2,0,0.2,0c0,0.1-1.2,0.3-2.9,1.3c-1.7,1-3.7,3-5.2,5.7
							c-1.5,2.7-2,5.4-2.5,7.4c-0.2,1-0.4,1.8-0.5,2.3C414.9,475.8,414.8,476.1,414.8,476.1z"/>
					</g>
				</g>
			</g>
		</g>
		<g>
			<g>
				<g>
					<g>
						<path class="st8" d="M414.9,439.4c0,0,0,0.1,0,0.4c0,0.3,0,0.6,0.1,1.1c0.1,0.9,0.1,2.3,0.2,4c0.1,3.4,0.2,8.1,0.2,13.2
							c0,5.2-0.1,9.8-0.3,13.2c-0.1,1.7-0.1,3.1-0.2,4c0,0.4-0.1,0.8-0.1,1.1c0,0.2,0,0.4,0,0.4c0,0,0-0.1,0-0.4c0-0.3,0-0.6,0-1.1
							c0-1,0.1-2.3,0.1-4c0.1-3.4,0.2-8.1,0.2-13.2c0-5.2,0-9.8-0.1-13.2c0-1.7,0-3-0.1-4c0-0.4,0-0.8,0-1.1
							C414.9,439.5,414.9,439.4,414.9,439.4z"/>
					</g>
				</g>
			</g>
		</g>
		<g>
			<g>
				<g>
					<path class="st9" d="M413.2,465.7c-0.8-5.1-4.3-9.7-8.9-12c-1.2-0.6-2.7-0.9-3.7-0.1c-1,0.9-0.8,2.5-0.3,3.7
						c2,5.1,7.3,8.7,12.8,8.7"/>
				</g>
			</g>
		</g>
		<g>
			<g>
				<g>
					<g>
						<path class="st8" d="M404.8,457.8c0,0,0.3,0.1,0.8,0.3c0.2,0.1,0.5,0.3,0.9,0.5c0.3,0.2,0.7,0.4,1.1,0.7
							c0.4,0.3,0.8,0.6,1.2,0.9c0.4,0.3,0.9,0.8,1.3,1.2c0.9,0.9,1.8,2,2.5,3.2c0.7,1.3,1.3,2.5,1.7,3.7c0.2,0.6,0.3,1.2,0.4,1.7
							c0.1,0.5,0.2,1.1,0.2,1.5c0.1,0.5,0,0.9,0.1,1.3c0,0.4,0,0.7,0,1c0,0.5-0.1,0.8-0.1,0.8c-0.1,0,0.1-1.2-0.2-3
							c-0.1-0.5-0.1-1-0.2-1.5c-0.1-0.5-0.3-1.1-0.4-1.7c-0.4-1.2-0.9-2.4-1.6-3.7c-0.7-1.2-1.6-2.3-2.5-3.2
							c-0.4-0.4-0.9-0.9-1.3-1.2c-0.4-0.4-0.8-0.7-1.2-1C405.9,458.3,404.8,457.8,404.8,457.8z"/>
					</g>
				</g>
			</g>
		</g>
	</g>
</g>
<g id="Character">
	<g>
		<g>
			<g>
				<g>
					<g>
						<g>
							<g>
								<g>
									<g>
										<g>
											<g>
												<g>
													<g>
														<g>
															<g>
																<path class="st12" d="M116.7,448.6l-0.6,29.1l38.3,0.9c-0.1-3.5-19.8-10.9-19.8-10.9l1.2-18.6L116.7,448.6z"/>
															</g>
														</g>
													</g>
												</g>
											</g>
										</g>
									</g>
								</g>
							</g>
						</g>
					</g>
				</g>
				<g class="st4">
					<g>
						<g>
							<g>
								<g>
									<g>
										<g>
											<g>
												<g>
													<g>
														<g>
															<g>
																<g>
																	<path class="st2" d="M122.8,465.9c-0.7,0.2-1.3,0.9-1.1,1.7c0.2,0.7,1,1.2,1.7,1.1c0.7-0.2,1.4-1.1,1.2-1.8
																		c-0.2-0.7-1.2-1.2-1.9-0.9"/>
																</g>
															</g>
														</g>
													</g>
												</g>
											</g>
										</g>
									</g>
								</g>
							</g>
						</g>
					</g>
				</g>
				<g class="st4">
					<g>
						<g>
							<g>
								<g>
									<g>
										<g>
											<g>
												<g>
													<g>
														<g>
															<g>
																<path class="st2" d="M116.1,477.7l0.2-2.9l36.6,2c0,0,1.7,0.7,1.5,1.9L116.1,477.7z"/>
															</g>
														</g>
													</g>
												</g>
											</g>
										</g>
									</g>
								</g>
							</g>
						</g>
					</g>
				</g>
				<g>
					<g>
						<g>
							<g>
								<g>
									<g>
										<g>
											<g>
												<g>
													<g>
														<g>
															<g>
																<g>
																	<path class="st8" d="M135.2,467.6c0,0.2-0.9,0.2-1.9,0.8c-0.9,0.5-1.4,1.3-1.6,1.2c-0.2,0,0.1-1.1,1.3-1.7
																		C134.2,467.2,135.3,467.4,135.2,467.6z"/>
																</g>
															</g>
														</g>
													</g>
												</g>
											</g>
										</g>
									</g>
								</g>
							</g>
						</g>
					</g>
				</g>
				<g>
					<g>
						<g>
							<g>
								<g>
									<g>
										<g>
											<g>
												<g>
													<g>
														<g>
															<g>
																<g>
																	<path class="st8" d="M139.2,469.2c0,0.2-0.8,0.5-1.4,1.2c-0.7,0.7-0.9,1.5-1,1.5c-0.2,0-0.3-1,0.6-1.9
																		C138.1,469.1,139.2,469.1,139.2,469.2z"/>
																</g>
															</g>
														</g>
													</g>
												</g>
											</g>
										</g>
									</g>
								</g>
							</g>
						</g>
					</g>
				</g>
				<g>
					<g>
						<g>
							<g>
								<g>
									<g>
										<g>
											<g>
												<g>
													<g>
														<g>
															<g>
																<g>
																	<path class="st8" d="M141.4,473.8c-0.2,0-0.4-0.9,0.1-1.8c0.5-1,1.4-1.3,1.5-1.2c0.1,0.1-0.5,0.7-0.9,1.4
																		C141.6,473.1,141.6,473.8,141.4,473.8z"/>
																</g>
															</g>
														</g>
													</g>
												</g>
											</g>
										</g>
									</g>
								</g>
							</g>
						</g>
					</g>
				</g>
				<g>
					<g>
						<g>
							<g>
								<g>
									<g>
										<g>
											<g>
												<g>
													<g>
														<g>
															<g>
																<g>
																	<path class="st8" d="M135,463.3c-0.1,0.2-0.9-0.1-2-0.1c-1.1,0-1.9,0.3-2,0.2c-0.1-0.1,0.7-0.8,2-0.8
																		C134.3,462.6,135.1,463.2,135,463.3z"/>
																</g>
															</g>
														</g>
													</g>
												</g>
											</g>
										</g>
									</g>
								</g>
							</g>
						</g>
					</g>
				</g>
				<g>
					<g>
						<g>
							<g>
								<g>
									<g>
										<g>
											<g>
												<g>
													<g>
														<g>
															<g>
																<g>
																	<path class="st8" d="M134.2,459c0,0.1-0.7,0.2-1.9-0.1c-0.6-0.1-1.3-0.3-2-0.6c-0.4-0.2-0.7-0.4-1.1-0.6
																		c-0.2-0.1-0.4-0.2-0.6-0.4c-0.2-0.2-0.3-0.7-0.1-0.9c0.2-0.3,0.6-0.4,0.8-0.4c0.3,0,0.5,0.1,0.7,0.1
																		c0.4,0.1,0.8,0.3,1.2,0.4c0.7,0.3,1.3,0.7,1.7,1.1c0.9,0.8,1.2,1.5,1.1,1.5c-0.1,0.1-0.5-0.5-1.4-1.2
																		c-0.4-0.3-1-0.7-1.7-1c-0.3-0.1-0.7-0.3-1.1-0.3c-0.4-0.1-0.7-0.1-0.9,0c0,0.1,0,0.1,0,0.2
																		c0.1,0.1,0.2,0.2,0.4,0.3c0.3,0.2,0.7,0.4,1,0.6c0.7,0.3,1.3,0.6,1.8,0.7C133.5,458.8,134.2,458.9,134.2,459z"/>
																</g>
															</g>
														</g>
													</g>
												</g>
											</g>
										</g>
									</g>
								</g>
							</g>
						</g>
					</g>
				</g>
				<g>
					<g>
						<g>
							<g>
								<g>
									<g>
										<g>
											<g>
												<g>
													<g>
														<g>
															<g>
																<g>
																	<path class="st8" d="M134,459.2c-0.1,0-0.4-0.6-0.5-1.8c0-0.6,0.1-1.3,0.3-2c0.1-0.4,0.3-0.7,0.5-1.1
																		c0.2-0.4,0.5-0.8,1.2-0.9c0.4,0,0.7,0.3,0.8,0.5c0.1,0.2,0.1,0.5,0.2,0.7c0.1,0.4,0,0.8,0,1.2
																		c-0.1,0.8-0.5,1.4-0.9,1.9c-0.8,0.9-1.6,1.1-1.6,1.1c-0.1-0.1,0.6-0.4,1.2-1.3c0.3-0.4,0.6-1,0.7-1.7
																		c0-0.3,0.1-0.7,0-1c0-0.4-0.2-0.7-0.3-0.7c-0.2,0-0.5,0.3-0.7,0.6c-0.2,0.3-0.4,0.6-0.5,1
																		c-0.3,0.6-0.4,1.3-0.4,1.8C133.9,458.6,134.1,459.2,134,459.2z"/>
																</g>
															</g>
														</g>
													</g>
												</g>
											</g>
										</g>
									</g>
								</g>
							</g>
						</g>
					</g>
				</g>
			</g>
		</g>
		<g>
			<g>
				<g>
					<g>
						<g>
							<g>
								<g>
									<g>
										<g>
											<g>
												<g>
													<g>
														<g>
															<g>
																<path class="st12" d="M87.7,451.1L84,479.9l-38-4.7c0.6-3.4,21.1-7.9,21.1-7.9l1.5-18.6L87.7,451.1z"/>
															</g>
														</g>
													</g>
												</g>
											</g>
										</g>
									</g>
								</g>
							</g>
						</g>
					</g>
				</g>
				<g class="st4">
					<g>
						<g>
							<g>
								<g>
									<g>
										<g>
											<g>
												<g>
													<g>
														<g>
															<g>
																<g>
																	<path class="st2" d="M79.1,467.2c0.7,0.3,1.1,1.1,0.9,1.8c-0.3,0.7-1.2,1.1-1.9,0.8c-0.7-0.3-1.2-1.3-0.9-1.9
																		c0.3-0.6,1.4-1.1,2-0.6"/>
																</g>
															</g>
														</g>
													</g>
												</g>
											</g>
										</g>
									</g>
								</g>
							</g>
						</g>
					</g>
				</g>
				<g class="st4">
					<g>
						<g>
							<g>
								<g>
									<g>
										<g>
											<g>
												<g>
													<g>
														<g>
															<g>
																<path class="st2" d="M84,479.9l0.2-2.9l-36.5-3.4c0,0-1.8,0.5-1.7,1.6L84,479.9z"/>
															</g>
														</g>
													</g>
												</g>
											</g>
										</g>
									</g>
								</g>
							</g>
						</g>
					</g>
				</g>
				<g>
					<g>
						<g>
							<g>
								<g>
									<g>
										<g>
											<g>
												<g>
													<g>
														<g>
															<g>
																<g>
																	<path class="st8" d="M66.6,467.1c0,0.2,0.9,0.4,1.7,1c0.9,0.7,1.2,1.5,1.4,1.4c0.2,0,0-1.1-1-1.9
																		C67.7,466.8,66.6,466.9,66.6,467.1z"/>
																</g>
															</g>
														</g>
													</g>
												</g>
											</g>
										</g>
									</g>
								</g>
							</g>
						</g>
					</g>
				</g>
				<g>
					<g>
						<g>
							<g>
								<g>
									<g>
										<g>
											<g>
												<g>
													<g>
														<g>
															<g>
																<g>
																	<path class="st8" d="M62.4,468.1c-0.1,0.2,0.7,0.6,1.2,1.4c0.6,0.8,0.6,1.6,0.8,1.6c0.2,0,0.4-1-0.3-2
																		C63.5,468.2,62.4,468,62.4,468.1z"/>
																</g>
															</g>
														</g>
													</g>
												</g>
											</g>
										</g>
									</g>
								</g>
							</g>
						</g>
					</g>
				</g>
				<g>
					<g>
						<g>
							<g>
								<g>
									<g>
										<g>
											<g>
												<g>
													<g>
														<g>
															<g>
																<g>
																	<path class="st8" d="M59.6,472.4c0.2,0.1,0.5-0.8,0.2-1.8c-0.4-1-1.2-1.5-1.3-1.4c-0.1,0.1,0.4,0.7,0.7,1.6
																		C59.5,471.6,59.4,472.3,59.6,472.4z"/>
																</g>
															</g>
														</g>
													</g>
												</g>
											</g>
										</g>
									</g>
								</g>
							</g>
						</g>
					</g>
				</g>
				<g>
					<g>
						<g>
							<g>
								<g>
									<g>
										<g>
											<g>
												<g>
													<g>
														<g>
															<g>
																<g>
																	<path class="st8" d="M67.4,462.9c0.1,0.2,0.9,0,2,0.2c1,0.2,1.8,0.6,1.9,0.5c0.1-0.1-0.6-0.9-1.8-1.1
																		C68.3,462.3,67.4,462.7,67.4,462.9z"/>
																</g>
															</g>
														</g>
													</g>
												</g>
											</g>
										</g>
									</g>
								</g>
							</g>
						</g>
					</g>
				</g>
				<g>
					<g>
						<g>
							<g>
								<g>
									<g>
										<g>
											<g>
												<g>
													<g>
														<g>
															<g>
																<g>
																	<path class="st8" d="M68.8,458.7c0,0.1,0.7,0.3,1.9,0.2c0.6,0,1.3-0.1,2.1-0.3c0.4-0.1,0.8-0.2,1.2-0.4
																		c0.2-0.1,0.4-0.2,0.6-0.4c0.2-0.2,0.4-0.6,0.2-0.9c-0.2-0.3-0.5-0.5-0.8-0.5c-0.3,0-0.5,0-0.7,0
																		c-0.4,0-0.8,0.1-1.2,0.2c-0.8,0.2-1.4,0.5-1.9,0.9c-1,0.7-1.4,1.3-1.3,1.3c0.1,0.1,0.6-0.4,1.5-1
																		c0.5-0.3,1.1-0.5,1.8-0.7c0.4-0.1,0.7-0.2,1.1-0.2c0.4-0.1,0.8,0,0.8,0.2c0,0.1,0,0.1-0.1,0.2
																		c-0.1,0.1-0.3,0.2-0.5,0.3c-0.4,0.2-0.7,0.3-1.1,0.4c-0.7,0.2-1.4,0.4-1.9,0.4C69.6,458.7,68.9,458.6,68.8,458.7z"
																		/>
																</g>
															</g>
														</g>
													</g>
												</g>
											</g>
										</g>
									</g>
								</g>
							</g>
						</g>
					</g>
				</g>
				<g>
					<g>
						<g>
							<g>
								<g>
									<g>
										<g>
											<g>
												<g>
													<g>
														<g>
															<g>
																<g>
																	<path class="st8" d="M69.1,459c0.1,0,0.5-0.5,0.7-1.7c0.1-0.6,0.1-1.3,0-2c-0.1-0.4-0.2-0.8-0.4-1.2
																		c-0.2-0.4-0.4-0.9-1.1-1.1c-0.4-0.1-0.7,0.2-0.9,0.4c-0.2,0.2-0.2,0.4-0.3,0.6c-0.1,0.4-0.2,0.8-0.1,1.2
																		c0,0.8,0.3,1.5,0.6,2c0.6,1,1.4,1.3,1.4,1.3c0.1-0.1-0.5-0.5-1-1.5c-0.2-0.5-0.4-1.1-0.4-1.8c0-0.3,0.1-0.7,0.2-1
																		c0.1-0.4,0.3-0.7,0.4-0.6c0.2,0,0.5,0.3,0.6,0.7c0.2,0.3,0.3,0.7,0.4,1c0.2,0.7,0.2,1.3,0.2,1.8
																		C69.2,458.3,69,459,69.1,459z"/>
																</g>
															</g>
														</g>
													</g>
												</g>
											</g>
										</g>
									</g>
								</g>
							</g>
						</g>
					</g>
				</g>
			</g>
		</g>
		<g>
			<g>
				<g>
					<g>
						<g>
							<path class="st8" d="M137.1,465.4"/>
						</g>
					</g>
				</g>
			</g>
			<g>
				<g>
					<g>
						<g>
							<path class="st8" d="M146.4,294.3l-59.6,1.9c0,0-14,93.8-13.7,100.3l-8.7,68l25.2,0.9c0,0,4-22.1,6.7-37.2
								c1.8-10,5.2-24.8,6.1-33.2c0.9-8.4,15.6-67,15.6-67s-1.1,68-1.1,70.8c0,2.8-2.9,66.5-2.9,66.5h25c1.3-11.5,4.4-57.5,5-66.8
								c1.2-16.8,5-64.2,5.5-76.3C150.3,310.2,146.4,294.3,146.4,294.3z"/>
						</g>
					</g>
				</g>
			</g>
		</g>
		<g>
			<g>
				<g>
					<g>
						<path class="st12" d="M142.5,294.8c-0.1,0-0.2-1-0.2-2.1c0-1.2,0.1-2.1,0.2-2.1c0.1,0,0.2,1,0.2,2.1
							C142.7,293.8,142.6,294.8,142.5,294.8z"/>
					</g>
				</g>
			</g>
		</g>
		<g>
			<g>
				<g>
					<g>
						<path class="st12" d="M144.9,295.9c-0.1,0-0.4-1.2-0.2-2.7c0.1-1.5,0.6-2.7,0.7-2.7c0.1,0-0.1,1.2-0.3,2.7
							C145,294.7,145.1,295.9,144.9,295.9z"/>
					</g>
				</g>
			</g>
		</g>
		<g>
			<g>
				<g>
					<g>
						<path class="st12" d="M122.7,291.4c0,0.1-0.7,0-1.3,0.7c-0.3,0.3-0.5,0.9-0.4,1.4c0.1,0.5,0.6,1,1.3,1.1
							c0.6,0.1,1.3-0.1,1.6-0.6c0.3-0.5,0.3-1,0.1-1.5c-0.3-0.9-1-1.1-0.9-1.1c0,0,0.2,0,0.4,0.1c0.3,0.1,0.6,0.4,0.8,0.9
							c0.2,0.5,0.3,1.1-0.1,1.8c-0.4,0.7-1.2,1-2,0.8c-0.8-0.1-1.5-0.8-1.6-1.5c-0.1-0.7,0.2-1.3,0.6-1.7c0.4-0.4,0.8-0.5,1.1-0.5
							C122.5,291.3,122.7,291.4,122.7,291.4z"/>
					</g>
				</g>
			</g>
		</g>
		<g>
			<g>
				<g>
					<g>
						<path class="st12" d="M95.2,394.9c0,0.1-2.9-1-6.4-2.4c-3.5-1.4-6.3-2.7-6.2-2.8c0-0.1,2.9,1,6.4,2.4
							C92.5,393.6,95.3,394.8,95.2,394.9z"/>
					</g>
				</g>
			</g>
		</g>
		<g>
			<g>
				<g>
					<g>
						<g>
							<g>
								<g>
									<g>
										<g>
											<path class="st8" d="M92,153.4c0.2-3.5,2.3-5.6,5.3-7.4c3-1.8,6.9-1.9,10-0.5c2.1,1,3.9,2.7,6.2,3
												c3.8,0.5,7.4-3,11.1-2.1c2.2,0.5,3.9,2.7,3.8,5c-0.1,2.3-1.9,4.3-4.2,4.7c2.5,0.4,3.9,3.5,3,5.8c-0.9,2.3-3.5,3.7-6,3.7
												c-2.5,0.1-4.9-1-7.1-2.2c-2.2-1.3-4.2-2.8-6.5-3.9c-2.3-1.1-4.9-1.7-7.3-1.1c-3.3,0.9-5.6,4-6.5,7.3
												c-0.9,3.3-0.5,6.8,0,10.1c0.5,3.4,1.2,6.8,0.8,10.1c0,0.4-0.1,0.9-0.5,1c-0.5,0.3-1.1-0.2-1.5-0.6
												c-4.2-5-7.4-10.8-9.4-17c-1.1-3.6-1.8-7.1-0.4-10.6C84.4,155.3,89,151.9,92,153.4"/>
										</g>
									</g>
								</g>
							</g>
						</g>
					</g>
				</g>
				<g>
					<g>
						<g>
							<g>
								<g>
									<g>
										<g>
											<g>
												<g>
													<g>
														<g>
															<g>
																<g>
																	<g>
																		<g>
																			<g>
																				<g>
																					<g>
																						<g>
																							<g>
																								<path class="st13" d="M88.8,170.1l5.6,34.3c1,6.4,5.2,12.6,15.2,10.5l0,0c8.6-2.5,7.9-8.7,6.8-16.3
																									c0,0,0,0.3,0,0c0,0,9.4-2.5,8.6-12c-0.4-4.6-2-14.1-3.6-22.7c-1.7-9.2-10.1-15.6-19.4-14.6l-0.9,0.1
																									C91.1,151,86.9,160.3,88.8,170.1z"/>
																							</g>
																						</g>
																					</g>
																				</g>
																			</g>
																		</g>
																	</g>
																</g>
															</g>
														</g>
													</g>
												</g>
											</g>
										</g>
										<g>
											<g>
												<g>
													<g>
														<g>
															<g>
																<g>
																	<g>
																		<g>
																			<g>
																				<g>
																					<g>
																						<g>
																							<g>
																								<path class="st14" d="M116.4,198.6c0,0-6,1-12.8-2.4c0,0,3.8,7.1,13.2,5.3L116.4,198.6z"/>
																							</g>
																						</g>
																					</g>
																				</g>
																			</g>
																		</g>
																	</g>
																</g>
															</g>
														</g>
													</g>
												</g>
											</g>
										</g>
									</g>
								</g>
							</g>
							<g>
								<g>
									<g>
										<g>
											<g>
												<g>
													<g>
														<g>
															<g>
																<g>
																	<g>
																		<g>
																			<g>
																				<g>
																					<g>
																						<g>
																							<g>
																								<g>
																									<g>
																										<g>
																											<path class="st8" d="M119.5,172.3c0.1,0.7-0.4,1.4-1.2,1.5c-0.7,0.1-1.4-0.4-1.5-1.1
																												c-0.1-0.7,0.4-1.4,1.2-1.5C118.7,171.1,119.4,171.6,119.5,172.3z"/>
																										</g>
																									</g>
																								</g>
																							</g>
																						</g>
																					</g>
																				</g>
																			</g>
																		</g>
																	</g>
																</g>
															</g>
														</g>
													</g>
													<g>
														<g>
															<g>
																<g>
																	<g>
																		<g>
																			<g>
																				<g>
																					<g>
																						<g>
																							<g>
																								<g>
																									<g>
																										<g>
																											<g>
																												<path class="st8" d="M119.8,168.8c-0.2,0.2-1.3-0.5-2.7-0.3c-1.5,0.1-2.5,1-2.7,0.8
																													c-0.1-0.1,0.1-0.4,0.5-0.8c0.4-0.4,1.2-0.8,2.1-0.9c0.9-0.1,1.7,0.2,2.2,0.5
																													C119.7,168.4,119.9,168.7,119.8,168.8z"/>
																											</g>
																										</g>
																									</g>
																								</g>
																							</g>
																						</g>
																					</g>
																				</g>
																			</g>
																		</g>
																	</g>
																</g>
															</g>
														</g>
													</g>
												</g>
												<g>
													<g>
														<g>
															<g>
																<g>
																	<g>
																		<g>
																			<g>
																				<g>
																					<g>
																						<g>
																							<g>
																								<g>
																									<g>
																										<g>
																											<path class="st8" d="M106.1,174.4c0.1,0.7-0.4,1.4-1.2,1.5c-0.7,0.1-1.4-0.4-1.5-1.1
																												c-0.1-0.7,0.4-1.4,1.2-1.5C105.3,173.2,106,173.7,106.1,174.4z"/>
																										</g>
																									</g>
																								</g>
																							</g>
																						</g>
																					</g>
																				</g>
																			</g>
																		</g>
																	</g>
																</g>
															</g>
														</g>
													</g>
													<g>
														<g>
															<g>
																<g>
																	<g>
																		<g>
																			<g>
																				<g>
																					<g>
																						<g>
																							<g>
																								<g>
																									<g>
																										<g>
																											<g>
																												<path class="st8" d="M105.6,170.5c-0.2,0.2-1.3-0.5-2.7-0.3c-1.5,0.1-2.5,1-2.7,0.8
																													c-0.1-0.1,0.1-0.4,0.5-0.8c0.4-0.4,1.2-0.8,2.1-0.9c0.9-0.1,1.7,0.2,2.2,0.5
																													C105.5,170.1,105.7,170.4,105.6,170.5z"/>
																											</g>
																										</g>
																									</g>
																								</g>
																							</g>
																						</g>
																					</g>
																				</g>
																			</g>
																		</g>
																	</g>
																</g>
															</g>
														</g>
													</g>
												</g>
												<g>
													<g>
														<g>
															<g>
																<g>
																	<g>
																		<g>
																			<g>
																				<g>
																					<g>
																						<g>
																							<g>
																								<g>
																									<g>
																										<g>
																											<path class="st8" d="M111.8,180.9c0-0.1,0.9-0.3,2.3-0.7c0.4-0.1,0.7-0.2,0.8-0.5
																												c0.1-0.3-0.1-0.7-0.4-1.1c-0.4-0.9-0.9-1.8-1.4-2.8c-2-3.9-3.4-7.2-3.3-7.2c0.2-0.1,1.9,3,3.8,7
																												c0.5,1,0.9,1.9,1.4,2.8c0.2,0.4,0.5,0.9,0.3,1.5c-0.1,0.3-0.3,0.5-0.6,0.6c-0.2,0.1-0.4,0.1-0.6,0.2
																												C112.7,180.9,111.8,181,111.8,180.9z"/>
																										</g>
																									</g>
																								</g>
																							</g>
																						</g>
																					</g>
																				</g>
																			</g>
																		</g>
																	</g>
																</g>
															</g>
														</g>
													</g>
												</g>
											</g>
										</g>
									</g>
									<g>
										<g>
											<g>
												<g>
													<g>
														<g>
															<g>
																<g>
																	<g>
																		<g>
																			<g>
																				<g>
																					<g>
																						<g>
																							<path class="st8" d="M105.2,164.7c-0.1,0.4-1.6,0.4-3.3,0.8c-1.7,0.3-3.1,1-3.3,0.7c-0.1-0.2,0.1-0.6,0.6-1
																								c0.5-0.4,1.4-0.9,2.4-1.1c1-0.2,2-0.1,2.6,0C104.8,164.2,105.2,164.5,105.2,164.7z"/>
																						</g>
																					</g>
																				</g>
																			</g>
																		</g>
																	</g>
																</g>
															</g>
														</g>
													</g>
												</g>
											</g>
										</g>
									</g>
									<g>
										<g>
											<g>
												<g>
													<g>
														<g>
															<g>
																<g>
																	<g>
																		<g>
																			<g>
																				<g>
																					<g>
																						<g>
																							<path class="st8" d="M118.8,164.6c-0.2,0.4-1.3,0.1-2.5,0.2c-1.2,0.1-2.2,0.5-2.5,0.1
																								c-0.1-0.2,0-0.5,0.4-0.9c0.4-0.4,1.1-0.7,2-0.8c0.8-0.1,1.6,0.2,2.1,0.5
																								C118.7,164.1,118.9,164.4,118.8,164.6z"/>
																						</g>
																					</g>
																				</g>
																			</g>
																		</g>
																	</g>
																</g>
															</g>
														</g>
													</g>
												</g>
											</g>
										</g>
									</g>
								</g>
							</g>
						</g>
					</g>
				</g>
				<g>
					<g>
						<g>
							<g>
								<g>
									<g>
										<g>
											<g>
												<g>
													<g>
														<g>
															<g>
																<g>
																	<g>
																		<g>
																			<path class="st13" d="M90.3,177.1c-0.2-0.1-6.8-1.3-5.9,5.2c0.9,6.5,7.2,4.3,7.2,4.1
																				C91.6,186.3,90.3,177.1,90.3,177.1z"/>
																		</g>
																	</g>
																</g>
															</g>
														</g>
													</g>
												</g>
											</g>
										</g>
									</g>
								</g>
							</g>
						</g>
					</g>
					<g>
						<g>
							<g>
								<g>
									<g>
										<g>
											<g>
												<g>
													<g>
														<g>
															<g>
																<g>
																	<g>
																		<g>
																			<g>
																				<path class="st14" d="M89.3,184.3c0,0-0.1,0.1-0.3,0.2c-0.2,0.1-0.5,0.2-0.8,0.1c-0.7-0.2-1.4-1.2-1.6-2.4
																					c-0.1-0.6,0-1.2,0.1-1.7c0.1-0.5,0.4-0.9,0.7-1c0.3-0.1,0.6,0,0.7,0.2c0.1,0.2,0.1,0.3,0.1,0.3
																					c0,0,0.1-0.1,0-0.4c0-0.1-0.1-0.3-0.3-0.4c-0.2-0.1-0.4-0.1-0.7-0.1c-0.5,0.1-0.9,0.6-1.1,1.2
																					c-0.2,0.6-0.3,1.2-0.2,1.9c0.2,1.3,1.1,2.5,2,2.6c0.5,0.1,0.8-0.1,1-0.3C89.3,184.5,89.3,184.3,89.3,184.3z"/>
																			</g>
																		</g>
																	</g>
																</g>
															</g>
														</g>
													</g>
												</g>
											</g>
										</g>
									</g>
								</g>
							</g>
						</g>
					</g>
				</g>
				<g>
					<g>
						<path class="st8" d="M120.6,155c-1-1.8-2.7-3.2-4.5-4.2c-3.8-2.3-8.4-3.6-12.8-3.2c-4.5,0.4-8.8,2.4-11.7,5.8
							c-2.3,2.7-3.7,6.2-4.1,9.8s0,7.2,1,10.6c0.4,1.5,1,3.1,2.2,4.1c0.7,0.6,2,1,2.7,0.3c0.4-0.4,0.5-1,0.6-1.6
							c0.8-5.2,1.4-10.7-0.9-15.4c1.1-1.8,2.4-3.4,4.1-4.6c1.7-1.2,3.8-1.8,5.9-1.4c3,0.6,5.1,3.3,7.6,5c3.6,2.5,8.5,3.1,12.6,1.5
							L120.6,155z"/>
					</g>
				</g>
			</g>
			<g>
				<g>
					<g>
						<g>
							<g>
								<g>
									<path class="st14" d="M113.1,184.9c-0.1,0.6-0.2,1.2-0.5,1.8c-0.3,0.6-0.7,1.1-1.3,1.2c-0.6,0.2-1.4-0.1-1.8-0.6
										c-0.5-0.5-0.7-1.1-0.8-1.8c-0.1-0.6,0-1.4,0.6-1.5c0.2-0.1,0.5,0,0.7,0c1.1,0.2,2.2,0.4,3.3,0.6"/>
								</g>
							</g>
						</g>
					</g>
				</g>
				<g>
					<g>
						<g>
							<g>
								<g>
									<g>
										<path class="st8" d="M112.4,187.7c0-0.1-0.7,0.3-1.7,0.1c-0.5-0.1-1.1-0.3-1.5-0.9c-0.4-0.5-0.6-1.3-0.5-2
											c0-0.2,0.1-0.4,0.2-0.5c0.1-0.2,0.1-0.1,0.2-0.2c0.1,0,0.4,0.1,0.5,0.1c0.2,0,0.4,0.1,0.5,0.1c0.7,0.1,1.4,0.2,1.9,0.3
											c1.1,0.2,1.8,0.2,1.8,0.2c0-0.1-0.6-0.3-1.7-0.5c-0.5-0.1-1.2-0.3-1.9-0.4c-0.2,0-0.4-0.1-0.5-0.1c-0.2,0-0.3-0.1-0.6-0.1
											c-0.1,0-0.3,0-0.5,0.1c-0.1,0.1-0.2,0.2-0.3,0.3c-0.1,0.2-0.2,0.4-0.2,0.7c-0.2,0.9,0.1,1.8,0.6,2.4
											c0.5,0.6,1.2,0.9,1.8,0.9c0.6,0.1,1.1-0.1,1.3-0.2C112.3,187.8,112.4,187.7,112.4,187.7z"/>
									</g>
								</g>
							</g>
						</g>
					</g>
				</g>
			</g>
		</g>
		<g>
			<g>
				<path class="st13" d="M136.7,170.8l1.5-0.4l24.1,23.5l19.5,2.4c0,0-0.2-5.9-7.5-13.5c-6.6-6.7-21.9-14.7-27.1-18.9
					c-1.3-1-2.3-1.3-2.3-1.3L136.7,170.8z"/>
			</g>
			<g>
				<g>
					<path class="st13" d="M136.7,159.6l-2.5-0.7l-5.8-2.8l-6.6,2.5c0,0,0.1,2.3,1.9,1.6l-6.9,2.3c0,0,0.6,1.6,0.9,1.8
						c0.3,0.1-4.1,0.5-4.1,0.5s0,2.2,4.1,2.2c4.2,0,5.8-0.8,5.8-0.8l3.3,0.9l-0.1,2l-4.5-0.1l0.2,2.5c0.7,0.3,5.8,0.9,5.8,0.9
						s7,0.1,8.9-0.8c1.9-0.9,4.3-2.2,4.3-2.2l3.6-6.9L136.7,159.6z"/>
				</g>
				<g>
					<g>
						<path class="st14" d="M130.5,160.8c0,0.1-0.4-0.1-1-0.4c-0.6-0.3-1.5-0.6-2.4-1.3l0.3,0c-0.1,0.1-0.2,0.1-0.3,0.2
							c-1,0.6-2,0.9-2.7,1c-0.7,0.1-1.2,0-1.2,0c0-0.2,1.8-0.2,3.7-1.4c0.1-0.1,0.2-0.1,0.3-0.2l0.2-0.1l0.1,0.1
							c0.8,0.6,1.7,1,2.2,1.4C130.2,160.5,130.5,160.8,130.5,160.8z"/>
					</g>
				</g>
				<g>
					<g>
						<path class="st14" d="M128.3,164.3c0,0-0.4,0.2-1.1-0.1c-0.7-0.3-1.4-1-2.4-1.4l0.2,0c-0.4,0.3-0.8,0.5-1.3,0.8
							c-1.4,0.7-2.8,0.9-3.7,0.9c-1,0-1.6-0.1-1.6-0.2c0-0.2,2.5,0,5.1-1.2c0.5-0.2,0.9-0.5,1.3-0.7l0.1-0.1l0.1,0.1
							c1.1,0.5,1.7,1.3,2.3,1.6C127.9,164.3,128.3,164.3,128.3,164.3z"/>
					</g>
				</g>
				<g>
					<g>
						<path class="st14" d="M134.6,166.5c0,0.1-0.5-0.1-1.3-0.1c-0.8,0-1.9,0.2-2.9,0.9c-0.6,0.4-1.1,0.9-1.4,1.4l-0.1,0.1l-0.1,0
							c-1.4,0.3-2.4,0.4-2.4,0.3c0-0.1,0.9-0.4,2.3-0.7l-0.1,0.1c0.3-0.6,0.8-1.2,1.5-1.6c1.1-0.7,2.3-0.9,3.2-0.8
							C134.1,166.2,134.6,166.5,134.6,166.5z"/>
					</g>
				</g>
				<g>
					<g>
						<path class="st15" d="M145.1,162.5l-8.3-2.9l-2.5-0.7l-5.8-2.8l-6.6,2.5c0,0,0.1,2.3,1.9,1.6l-6.9,2.3c0,0,0.6,1.6,0.9,1.8
							c0.3,0.1-4.1,0.5-4.1,0.5s0,2.2,4.1,2.2c4.2,0,5.8-0.8,5.8-0.8l3.3,0.9l-0.1,2l-4.3-0.2l0.4,2.8c0.7,0.3,5.4,0.8,5.4,0.8
							s7,0.1,8.9-0.8c1.9-0.9,4.3-2.2,4.3-2.2"/>
					</g>
					<g>
						<g>
							<path class="st14" d="M141.4,169.4c0,0-0.1,0.1-0.2,0.1c-0.2,0.1-0.4,0.2-0.6,0.4c-0.6,0.3-1.4,0.8-2.4,1.3
								c-0.5,0.3-1.1,0.7-1.8,0.8c-0.7,0.2-1.5,0.3-2.4,0.4c-1.7,0.2-3.6,0.2-5.8,0.2h0l0,0c-0.8-0.1-1.7-0.2-2.6-0.3
								c-0.9-0.1-1.8-0.2-2.9-0.5l-0.1,0l0-0.1c-0.1-0.9-0.3-1.8-0.5-2.8l0-0.3l0.3,0c1.4,0.1,2.8,0.1,4.3,0.2l-0.3,0.2
								c0-0.6,0.1-1.3,0.1-2l0.2,0.3c-1-0.3-2.2-0.6-3.3-0.9l0.2,0c-1.6,0.6-3.3,0.7-5,0.8c-0.9,0-1.7,0-2.6-0.1
								c-0.9-0.2-1.8-0.6-2.4-1.4c-0.1-0.3-0.2-0.5-0.3-0.9l0-0.2l0.2,0c1-0.1,2.1-0.2,3.1-0.3c0.3,0,0.5-0.1,0.7-0.1l0.2,0
								c0,0,0,0,0,0c0,0,0,0-0.1,0c-0.1,0.1-0.1,0.2-0.1,0.2c0,0.1,0.2,0.2,0.1,0.2c-0.1,0-0.1-0.1-0.2-0.1
								c-0.1-0.1-0.2-0.3-0.3-0.4c-0.3-0.5-0.4-0.9-0.6-1.4l-0.1-0.2l0.3-0.1c2.4-0.8,4.7-1.5,6.9-2.3l0.2,0.5
								c-0.3,0.1-0.6,0.2-0.9,0.1c-0.3,0-0.6-0.2-0.8-0.4c-0.4-0.5-0.5-1-0.6-1.5l0-0.2l0.2-0.1c2.4-0.9,4.6-1.7,6.6-2.4l0.1,0
								l0.1,0c2.1,1,4.1,2,5.8,2.8l0,0c0.9,0.2,1.7,0.5,2.4,0.7c0.7,0.3,1.5,0.5,2.1,0.8c1.3,0.5,2.4,0.9,3.4,1.2
								c0.9,0.3,1.6,0.6,2.1,0.8c0.5,0.2,0.7,0.3,0.7,0.3c0,0-0.3-0.1-0.8-0.2c-0.5-0.2-1.2-0.4-2.1-0.7c-0.9-0.3-2.1-0.7-3.4-1.1
								c-0.7-0.2-1.4-0.5-2.1-0.7c-0.8-0.2-1.6-0.4-2.4-0.7l0,0l0,0c-1.8-0.8-3.7-1.7-5.8-2.7l0.2,0c-2.1,0.8-4.3,1.6-6.6,2.5
								l0.2-0.2c0,0.4,0.2,0.9,0.4,1.2c0.3,0.3,0.7,0.4,1.1,0.2l0.2,0.5c-2.2,0.7-4.5,1.5-6.9,2.3l0.2-0.3c0.2,0.5,0.3,0.9,0.6,1.3
								c0.1,0.1,0.1,0.2,0.2,0.2c0,0,0,0,0,0c0,0-0.1,0.1-0.1,0.1l0,0l0,0c0.1-0.3,0-0.1,0.1-0.1c0,0,0,0,0.1,0c0,0,0.1,0.1,0.1,0.1
								c0,0.1,0,0.2-0.1,0.2c-0.1,0.1-0.1,0-0.1,0.1c0,0-0.1,0-0.1,0c-0.1,0-0.1,0-0.2,0c-0.3,0-0.5,0.1-0.8,0.1
								c-1,0.1-2,0.2-3.1,0.3l0.2-0.3c0,0.2,0.1,0.4,0.2,0.6c0.4,0.7,1.2,1,2,1.2c0.8,0.2,1.7,0.2,2.5,0.1c1.7-0.1,3.4-0.2,4.8-0.7
								l0.1,0l0.1,0c1.2,0.3,2.3,0.6,3.3,0.9l0.2,0.1l0,0.2c0,0.7-0.1,1.4-0.1,2l0,0.2l-0.2,0c-1.5-0.1-2.9-0.1-4.3-0.2l0.2-0.3
								c0.2,1,0.3,1.9,0.4,2.8l-0.1-0.2c0.8,0.3,1.8,0.3,2.7,0.5c0.9,0.1,1.8,0.2,2.6,0.3l0,0c2.1,0,4.1,0,5.8-0.2
								c0.8-0.1,1.6-0.2,2.3-0.3c0.7-0.1,1.3-0.5,1.8-0.8c1-0.5,1.9-0.9,2.5-1.2c0.3-0.1,0.5-0.2,0.6-0.3
								C141.3,169.5,141.4,169.4,141.4,169.4z"/>
						</g>
					</g>
				</g>
				<g>
					<g>
						<path class="st14" d="M133.1,161.9c0.1,0.1-0.9,1.4-2.6,2.6c-1.7,1.2-3.3,1.7-3.3,1.6c-0.1-0.1,1.4-0.8,3-2
							C131.8,163,132.9,161.8,133.1,161.9z"/>
					</g>
				</g>
			</g>
		</g>
		<g>
			<g>
				<path class="st9" d="M181.8,195.5l-19.4-1.6l-22.8,8.7l-5,3.1l7.1,24.4c0,0,35.8-21.1,37.3-22.9
					C183.7,201.5,181.8,195.5,181.8,195.5z"/>
			</g>
			<g>
				<g>
					<g>
						<g>
							<path class="st9" d="M78.4,213.4l-6.7,4.1l15.4,60.5l-2.8,34.9c4,3.5,14,6.4,33,5.4c19-1.1,31.7-9.3,31.7-9.3l-1.8-35.9
								l-4.3-40.5l-4.9-27.7l-14.6,1.1l-5.7-3.4l-2.6,1.3l-3.3,9.1l-8.5-6.2l-10-4.8l-3.7,6.8L78.4,213.4z"/>
						</g>
					</g>
				</g>
			</g>
			<g>
				<g>
					<path class="st8" d="M138,211.9c0,0,0.2,0.5,0.5,1.3c0.3,0.9,0.7,2.2,1.2,3.8c0.9,3.2,2.1,7.7,3,12.7c0.9,5,1.4,9.6,1.6,12.9
						c0.1,1.7,0.2,3,0.2,3.9c0,0.9,0,1.4,0,1.4c0,0-0.1-0.5-0.2-1.4c-0.1-1-0.2-2.3-0.3-3.9c-0.3-3.3-0.8-7.9-1.7-12.8
						c-0.9-5-2-9.4-2.8-12.6c-0.4-1.5-0.8-2.8-1-3.8C138.1,212.4,138,211.9,138,211.9z"/>
				</g>
			</g>
		</g>
		<g>
			<g>
				<path class="st8" d="M109.1,212.4c0,0-0.5-0.1-1.4-0.5c-0.8-0.4-2-1.2-3-2.6l0.4-0.1c-0.2,2.4-0.7,5.5-1.8,8.7l-0.1,0.3
					l-0.3-0.2c-0.2-0.2-0.5-0.3-0.7-0.5c-3.4-2.4-6.5-4.5-8.8-6.1c-1-0.8-1.9-1.4-2.6-1.9c-0.6-0.5-0.9-0.7-0.9-0.8
					c0,0,0.4,0.2,1,0.6c0.7,0.5,1.6,1.1,2.7,1.8c2.3,1.5,5.4,3.6,8.9,6c0.2,0.2,0.5,0.3,0.7,0.5l-0.4,0.1c1.1-3.2,1.7-6.2,1.9-8.6
					l0.1-0.5l0.3,0.4c0.9,1.3,2,2.1,2.8,2.6C108.6,212.2,109.1,212.3,109.1,212.4z"/>
			</g>
		</g>
		<g>
			<g>
				<path class="st8" d="M122.8,207c0.1,0.1-1.3,1.6-3.3,3.7l-0.2,0.2l-0.2-0.2c-0.6-0.7-1.4-1.5-2.2-2.2c-0.4-0.4-0.8-0.7-1.2-1
					c-0.2-0.2-0.4-0.3-0.6-0.4C115,207,115,207,115,207c0,0,0,0-0.1,0.1c-0.3,0.8-0.6,1.6-0.9,2.4c-0.5,1.4-0.9,2.2-1,2.2
					c-0.1,0,0.2-0.9,0.6-2.3c0.3-0.8,0.5-1.6,0.8-2.4c0-0.1,0.1-0.3,0.3-0.4c0.3-0.1,0.5,0,0.6,0.1c0.2,0.2,0.4,0.3,0.6,0.5
					c0.4,0.3,0.9,0.7,1.3,1c0.8,0.7,1.6,1.5,2.2,2.3l-0.4,0C121.2,208.3,122.7,207,122.8,207z"/>
			</g>
		</g>
		<g>
			<g>
				<g>
					<g>
						<g>
							<g>
								<g>
									<g>
										<g>
											<g>
												<g>
													<path class="st12" d="M118.8,315.7c8.2-1.6,17-0.6,25.1,3.1c10,4.7,17.6,13,21.4,23.4c3.8,10.4,3.3,21.6-1.4,31.7
														c-9.6,20.7-34.3,29.7-55,20.1l0,0c-10-4.7-17.6-13-21.4-23.4c-3.8-10.4-3.3-21.6,1.4-31.7
														C94.7,326.4,106.1,318.1,118.8,315.7z M133.6,394.4c11.8-2.2,22.5-9.9,27.9-21.7c4.4-9.4,4.8-19.9,1.3-29.6
														c-3.5-9.7-10.6-17.4-20-21.8c-9.4-4.4-19.9-4.8-29.6-1.3c-9.7,3.5-17.4,10.6-21.8,20c-4.4,9.4-4.8,19.9-1.3,29.6
														c3.5,9.7,10.6,17.4,20,21.8C117.7,395,125.9,395.9,133.6,394.4z"/>
												</g>
												<g>
													<path class="st12" d="M126.4,399.9c-6.2,0-12.4-1.4-18.3-4.1c-10.5-4.9-18.5-13.6-22.5-24.5c-4-10.9-3.5-22.7,1.4-33.2
														c5.9-12.6,17.6-21.7,31.4-24.3c9-1.7,18.1-0.6,26.3,3.3c10.5,4.9,18.5,13.6,22.5,24.5c4,10.9,3.5,22.7-1.4,33.2
														c-4.9,10.5-13.6,18.5-24.5,22.5C136.5,399,131.4,399.9,126.4,399.9z M126.5,319.8c-4.2,0-8.5,0.7-12.6,2.2
														c-9.2,3.4-16.5,10.1-20.7,19c-4.1,8.9-4.6,18.8-1.2,28c3.4,9.2,10.1,16.5,19,20.7c7,3.2,14.7,4.2,22.2,2.8l0,0
														c11.6-2.2,21.5-9.9,26.5-20.5c4.1-8.9,4.6-18.8,1.2-28c-3.4-9.2-10.1-16.5-19-20.7C137,320.9,131.7,319.8,126.5,319.8z
														"/>
												</g>
											</g>
										</g>
									</g>
								</g>
							</g>
						</g>
						<g>
							<g>
								<g>
									<g>
										<g>
											<g>
												<g>
													<path class="st12" d="M25.7,316l0.4-0.9c0.8-1.9,2.5-3.1,3.8-2.5l60.5,24.6c0.3,0.1,0.4,0.6,0.2,1l-2.6,6.3
														c-0.2,0.4-0.6,0.7-0.9,0.6l-60.5-24.6C25.3,319.9,24.9,317.9,25.7,316z"/>
												</g>
											</g>
										</g>
									</g>
								</g>
							</g>
						</g>
					</g>
				</g>
			</g>
			<g>
				<g>
					<g>
						<g>
							<g>
								<g>
									<g>
										<path class="st13" d="M82.2,246.2l-7.3,24.1l3.7,49.1l-10.7,1.4c0,0-12.3-41.8-11.1-49.3c1.2-7.5,6.2-29.6,6.2-29.6
											L82.2,246.2z"/>
									</g>
								</g>
							</g>
						</g>
					</g>
					<g>
						<g>
							<g>
								<g>
									<g>
										<path class="st13" d="M78.6,319.1l5,8.5l3.1,8l-4.7-1.9c0,0-2,9.7-2.8,9.9c-0.8,0.3-3.1-0.5-2.8-2.4c0,0-1.1,1.1-2.5,0.8
											c-1.4-0.3-1.8-1.2-1.6-3c0,0-1.7,1.3-2.6,0.5c-1-0.8-0.9-2.3-0.9-2.3s-2.2,0.2-2.4-0.9c-0.3-1.1-0.4-4.3-0.1-5.5
											c0.3-1.2,1.3-6.2,1.3-6.2l0.5-4L78.6,319.1z"/>
									</g>
								</g>
							</g>
						</g>
						<g>
							<g>
								<g>
									<g>
										<g>
											<path class="st14" d="M77.4,335.8c-0.1,0-0.5,1.2-0.8,2.7c-0.3,1.5-0.4,2.8-0.3,2.8c0.1,0,0.5-1.2,0.8-2.7
												C77.4,337,77.5,335.8,77.4,335.8z"/>
										</g>
									</g>
								</g>
							</g>
						</g>
						<g>
							<g>
								<g>
									<g>
										<g>
											<path class="st14" d="M73,334.6c-0.1,0-0.4,1-0.7,2.2c-0.2,1.2-0.3,2.2-0.2,2.3c0.1,0,0.4-1,0.7-2.2
												C73,335.7,73.1,334.7,73,334.6z"/>
										</g>
									</g>
								</g>
							</g>
						</g>
						<g>
							<g>
								<g>
									<g>
										<g>
											<path class="st14" d="M69.3,333.6c-0.1,0-0.2,0.9-0.4,1.9c-0.2,1-0.4,1.8-0.3,1.9c0.1,0,0.6-0.7,0.8-1.8
												C69.6,334.5,69.5,333.6,69.3,333.6z"/>
										</g>
									</g>
								</g>
							</g>
						</g>
						<g>
							<g>
								<g>
									<g>
										<g>
											<path class="st14" d="M82.3,331c-0.1,0-0.4,1.2-0.8,2.7c-0.4,1.5-0.6,2.7-0.5,2.8c0.1,0,0.6-1.1,0.9-2.6
												C82.3,332.3,82.4,331,82.3,331z"/>
										</g>
									</g>
								</g>
							</g>
						</g>
					</g>
				</g>
				<g>
					<path class="st9" d="M56.2,287.7c0-0.8-3.4-12.3-2.3-18.2c1-5.9,13.2-46,14.9-48.9c1.6-2.9,5.2-4.4,5.2-4.4s7.3,3.4,9.7,12.2
						c2.5,8.8,2.5,19.8,2.5,19.8l-9.8,24.3l1.2,13.8L56.2,287.7z"/>
				</g>
			</g>
			<g>
				<g>
					<path class="st8" d="M85.4,247.4c-0.1,0,0.1-1.8,0-4.7c0-1.4-0.2-3.2-0.5-5c-0.3-1.9-0.8-3.9-1.4-6c-0.7-2.1-1.5-4-2.3-5.7
						c-0.9-1.7-1.7-3.2-2.5-4.4c-1.6-2.4-2.8-3.8-2.7-3.8c0,0,0.3,0.3,0.9,0.9c0.5,0.6,1.3,1.5,2.1,2.7c0.8,1.2,1.7,2.7,2.6,4.4
						c0.9,1.7,1.7,3.7,2.4,5.8c0.7,2.1,1.1,4.2,1.4,6.1c0.3,1.9,0.4,3.6,0.4,5.1c0,1.5-0.1,2.6-0.2,3.4
						C85.5,247,85.5,247.4,85.4,247.4z"/>
				</g>
			</g>
			<g>
				<g>
					<path class="st8" d="M84.8,252.5c0.1,0-0.3,1.2-1,3c-0.7,1.8-1.8,4.4-3,7.1c-1.2,2.7-2.3,5.1-3.2,7c-0.8,1.8-1.3,2.9-1.4,2.9
						c-0.1,0,0.3-1.2,1-3c0.7-1.8,1.8-4.4,3-7.1c1.2-2.7,2.3-5.1,3.2-7C84.2,253.6,84.7,252.5,84.8,252.5z"/>
				</g>
			</g>
			<g>
				<g>
					<path class="st8" d="M76.8,273.5c-0.1,0.1-2.8-1.8-6.7-2.9c-3.9-1.2-7.2-1.1-7.2-1.3c0-0.1,0.8-0.2,2.2-0.1
						c1.3,0,3.2,0.3,5.2,0.9c2,0.6,3.7,1.4,4.8,2.1C76.2,272.9,76.9,273.4,76.8,273.5z"/>
				</g>
			</g>
			<g>
				<g>
					<path class="st2" d="M140.7,342.4c0.1,0.1-7.8,7-17.6,15.4c-9.8,8.4-17.9,15.1-17.9,15c-0.1-0.1,7.8-7,17.6-15.4
						C132.6,349,140.6,342.3,140.7,342.4z"/>
				</g>
			</g>
			<g>
				<g>
					<path class="st2" d="M150.8,342.4c0.1,0.1-6.5,6-14.8,13.1c-8.3,7.1-15.1,12.8-15.2,12.7c-0.1-0.1,6.5-6,14.8-13.1
						C143.9,348,150.7,342.3,150.8,342.4z"/>
				</g>
			</g>
			<g>
				<g>
					<path class="st8" d="M165.8,356.4c0,0,0-0.2-0.1-0.6c0-0.4-0.1-1.1-0.1-1.9c0-0.4-0.1-0.9-0.1-1.4c-0.1-0.5-0.2-1-0.2-1.6
						c-0.1-0.6-0.2-1.2-0.3-1.9c-0.1-0.7-0.3-1.4-0.5-2.1c-0.7-3-2.1-6.6-4.4-10.4c-2.3-3.8-5.5-7.7-10-11.1
						c-0.6-0.4-1.1-0.8-1.7-1.3c-0.6-0.4-1.2-0.7-1.8-1.1c-0.6-0.4-1.2-0.8-1.9-1.1c-0.7-0.3-1.3-0.6-2-1c-0.3-0.2-0.7-0.3-1-0.5
						c-0.4-0.1-0.7-0.3-1.1-0.4c-0.7-0.3-1.5-0.5-2.2-0.8c-0.7-0.2-1.5-0.4-2.3-0.6c-0.8-0.2-1.6-0.5-2.4-0.5
						c-1.6-0.2-3.2-0.6-4.9-0.6c-0.8,0-1.7-0.1-2.5-0.1c-0.9,0-1.7,0.1-2.6,0.1c-0.4,0-0.9,0-1.3,0.1l-1.3,0.2
						c-0.9,0.1-1.8,0.2-2.6,0.4c-1.7,0.5-3.5,0.8-5.2,1.5c-1.8,0.6-3.4,1.4-5.1,2.2c-0.8,0.4-1.6,1-2.4,1.5
						c-0.4,0.3-0.8,0.5-1.2,0.8l-1.1,0.9c-1.6,1.1-3,2.5-4.4,3.8c-1.3,1.5-2.7,2.9-3.8,4.5l-0.9,1.2l-0.8,1.3l-0.8,1.3
						c-0.3,0.4-0.5,0.9-0.7,1.3c-0.4,0.9-0.9,1.8-1.3,2.8c-0.4,1-0.7,1.9-1.1,2.9c-1.3,3.9-2,8.1-2,12.3c0.1,4.2,0.7,8.4,2,12.3
						c0.4,1,0.7,1.9,1.1,2.9c0.4,0.9,0.9,1.8,1.3,2.8l0.3,0.7l0.4,0.6l0.8,1.3l0.8,1.3l0.9,1.2c1.1,1.7,2.5,3.1,3.8,4.5
						c1.5,1.3,2.8,2.7,4.4,3.8l1.2,0.9c0.4,0.3,0.8,0.5,1.2,0.8c0.8,0.5,1.6,1,2.4,1.5c1.7,0.8,3.3,1.7,5.1,2.2
						c1.7,0.7,3.5,1.1,5.2,1.5c0.9,0.2,1.8,0.3,2.6,0.4l1.3,0.2c0.4,0.1,0.9,0.1,1.3,0.1c0.9,0,1.7,0.1,2.6,0.1
						c0.9,0,1.7-0.1,2.5-0.1c1.7,0,3.3-0.3,4.9-0.6c0.8-0.1,1.6-0.4,2.4-0.5c0.8-0.2,1.6-0.4,2.3-0.6c0.7-0.3,1.5-0.5,2.2-0.8
						c0.4-0.1,0.7-0.3,1.1-0.4c0.3-0.2,0.7-0.3,1-0.5c0.7-0.3,1.4-0.7,2-1c0.7-0.3,1.3-0.7,1.9-1.1c0.6-0.4,1.2-0.7,1.8-1.1
						c0.6-0.4,1.1-0.8,1.7-1.3c4.4-3.4,7.7-7.3,10-11.1c2.2-3.8,3.7-7.4,4.4-10.4c0.2-0.8,0.4-1.5,0.5-2.1c0.1-0.7,0.2-1.3,0.3-1.9
						c0.1-0.6,0.2-1.1,0.2-1.6c0-0.5,0.1-1,0.1-1.4c0.1-0.8,0.1-1.4,0.1-1.9C165.7,356.6,165.8,356.4,165.8,356.4s0,0.2,0,0.6
						c0,0.4,0,1.1-0.1,1.9c0,0.4,0,0.9-0.1,1.4c0,0.5-0.1,1.1-0.2,1.7c-0.1,0.6-0.2,1.2-0.3,1.9c-0.1,0.7-0.3,1.4-0.5,2.2
						c-0.7,3.1-2.1,6.7-4.3,10.5c-2.3,3.8-5.5,7.8-10,11.2c-0.6,0.4-1.1,0.8-1.7,1.3c-0.6,0.4-1.2,0.8-1.9,1.1
						c-0.6,0.4-1.2,0.8-1.9,1.1c-0.7,0.3-1.4,0.7-2,1c-0.3,0.2-0.7,0.3-1,0.5c-0.4,0.1-0.7,0.3-1.1,0.4c-0.7,0.3-1.5,0.5-2.2,0.8
						c-0.8,0.3-1.5,0.4-2.3,0.6c-0.8,0.2-1.6,0.5-2.4,0.5c-1.6,0.2-3.3,0.6-5,0.6c-0.9,0-1.7,0.1-2.6,0.1c-0.9,0-1.7-0.1-2.6-0.1
						c-0.4,0-0.9,0-1.3-0.1l-1.3-0.2c-0.9-0.1-1.8-0.2-2.7-0.4c-1.7-0.5-3.6-0.8-5.3-1.5c-1.8-0.6-3.4-1.4-5.2-2.3
						c-0.8-0.5-1.6-1-2.5-1.5c-0.4-0.3-0.8-0.5-1.2-0.8l-1.2-0.9c-1.6-1.1-3-2.5-4.5-3.8c-1.3-1.5-2.7-2.9-3.9-4.6l-0.9-1.2
						l-0.8-1.3l-0.8-1.3l-0.4-0.7l-0.3-0.7c-0.4-0.9-0.9-1.9-1.3-2.8c-0.4-1-0.7-2-1.1-2.9c-1.3-4-2-8.2-2-12.5
						c0.1-4.3,0.8-8.5,2-12.5c0.4-1,0.7-2,1.1-2.9c0.4-0.9,0.9-1.9,1.3-2.8c0.2-0.5,0.5-0.9,0.7-1.3l0.8-1.3l0.8-1.3l0.9-1.2
						c1.1-1.7,2.5-3.1,3.9-4.6c1.5-1.3,2.9-2.7,4.5-3.8l1.2-0.9c0.4-0.3,0.8-0.5,1.2-0.8c0.8-0.5,1.6-1,2.5-1.5
						c1.7-0.8,3.4-1.7,5.2-2.3c1.7-0.7,3.5-1.1,5.3-1.5c0.9-0.2,1.8-0.3,2.7-0.4l1.3-0.2c0.4-0.1,0.9-0.1,1.3-0.1
						c0.9,0,1.8-0.1,2.6-0.1c0.9,0,1.7,0.1,2.6,0.1c1.7,0,3.4,0.4,5,0.6c0.8,0.1,1.6,0.4,2.4,0.5c0.8,0.2,1.6,0.4,2.3,0.6
						c0.7,0.3,1.5,0.5,2.2,0.8c0.4,0.1,0.7,0.3,1.1,0.4c0.3,0.2,0.7,0.3,1,0.5c0.7,0.3,1.4,0.7,2,1c0.7,0.3,1.3,0.8,1.9,1.1
						c0.6,0.4,1.3,0.8,1.9,1.1c0.6,0.4,1.1,0.9,1.7,1.3c4.5,3.4,7.7,7.4,10,11.2c2.2,3.8,3.6,7.5,4.3,10.5c0.2,0.8,0.4,1.5,0.5,2.2
						c0.1,0.7,0.2,1.3,0.3,1.9c0.1,0.6,0.2,1.1,0.2,1.7c0,0.5,0,1,0.1,1.4c0,0.8,0.1,1.4,0.1,1.9
						C165.8,356.2,165.8,356.4,165.8,356.4z"/>
				</g>
			</g>
			<g>
				<g>
					<path class="st8" d="M151.2,377.3c0,0,0.3-0.5,1-1.3c0.6-0.8,1.5-2.1,2.5-3.7c1.9-3.3,4-8.2,4.6-14c0.6-5.8-0.4-11.1-1.6-14.6
						c-0.6-1.8-1.2-3.2-1.7-4.2c-0.5-1-0.7-1.5-0.7-1.5c0,0,0.1,0.1,0.2,0.4c0.1,0.2,0.4,0.6,0.6,1.1c0.5,0.9,1.2,2.3,1.8,4.2
						c1.3,3.6,2.4,8.9,1.8,14.8c-0.6,5.9-2.8,10.9-4.8,14.1c-1,1.6-2,2.9-2.7,3.7c-0.3,0.4-0.6,0.7-0.8,0.9
						C151.4,377.2,151.3,377.3,151.2,377.3z"/>
				</g>
			</g>
			<g>
				<g>
					<path class="st8" d="M149.2,380.9c0.1,0.1-0.2,0.4-0.7,0.7c-0.5,0.3-0.9,0.4-0.9,0.2c-0.1-0.1,0.2-0.4,0.7-0.7
						C148.7,380.9,149.1,380.8,149.2,380.9z"/>
				</g>
			</g>
			<g>
				<g>
					<path class="st2" d="M97.6,373.3c0,0-0.1-0.2-0.2-0.5c-0.1-0.3-0.4-0.8-0.6-1.4c-0.5-1.2-1.1-3-1.6-5.3
						c-1-4.6-1.4-11.3,0.4-18.3c1.9-7,5.6-12.6,8.8-16c1.6-1.7,3-3,4.1-3.8c0.5-0.4,0.9-0.7,1.2-0.9c0.3-0.2,0.4-0.3,0.4-0.3
						c0,0-0.5,0.5-1.5,1.3c-1,0.9-2.4,2.2-3.9,3.9c-3.1,3.5-6.7,9-8.6,15.9c-1.9,6.9-1.5,13.5-0.6,18.1c0.5,2.3,1,4.1,1.4,5.3
						C97.4,372.6,97.7,373.2,97.6,373.3z"/>
				</g>
			</g>
			<g>
				<g>
					<path class="st2" d="M120.8,324.2c0,0.1-1,0.3-2.3,0.5c-1.3,0.1-2.3,0.1-2.4-0.1c0-0.1,1-0.3,2.3-0.5
						C119.8,324.1,120.8,324.1,120.8,324.2z"/>
				</g>
			</g>
		</g>
	</g>
</g>
</svg>
